M48
; DRILL file {KiCad 8.0.3} date 2024-10-07T11:20:28-0600
; FORMAT={-:-/ absolute / metric / decimal}
; #@! TF.CreationDate,2024-10-07T11:20:28-06:00
; #@! TF.GenerationSoftware,Kicad,Pcbnew,8.0.3
; #@! TF.FileFunction,Plated,1,2,PTH
FMAT,2
METRIC
; #@! TA.AperFunction,Plated,PTH,ComponentDrill
T1C0.800
; #@! TA.AperFunction,Plated,PTH,ComponentDrill
T2C0.900
; #@! TA.AperFunction,Plated,PTH,ComponentDrill
T3C1.000
; #@! TA.AperFunction,Plated,PTH,ComponentDrill
T4C1.100
; #@! TA.AperFunction,Plated,PTH,ComponentDrill
T5C1.400
%
G90
G05
T1
X148.164Y-93.751
X148.164Y-103.911
X148.829Y-83.211
X148.829Y-90.831
X151.354Y-93.751
X151.354Y-103.911
X151.369Y-83.211
X151.369Y-90.831
X153.909Y-83.211
X153.909Y-90.831
X154.514Y-93.751
X154.514Y-103.911
X158.964Y-93.731
X158.964Y-103.891
X159.629Y-83.261
X159.629Y-90.881
X162.154Y-93.731
X162.154Y-103.891
X162.169Y-83.261
X162.169Y-90.881
X164.709Y-83.261
X164.709Y-90.881
X165.314Y-93.731
X165.314Y-103.891
X170.064Y-94.986
X175.064Y-94.986
X180.014Y-94.986
X184.894Y-94.986
X189.864Y-94.986
X194.834Y-89.586
X194.864Y-94.986
X204.994Y-89.586
X205.224Y-99.846
X205.224Y-110.006
X211.824Y-112.126
X211.824Y-115.776
X213.972Y-105.226
X216.472Y-105.226
X216.824Y-112.126
X216.824Y-115.776
T2
X149.454Y-108.481
X150.724Y-108.481
X151.994Y-108.481
X153.264Y-108.481
X160.254Y-108.431
X161.524Y-108.431
X162.794Y-108.431
X164.064Y-108.431
X199.564Y-93.346
X199.564Y-95.886
X207.274Y-92.196
X207.274Y-97.496
T3
X144.664Y-97.146
X144.664Y-99.686
X144.664Y-102.226
X144.664Y-104.766
X144.664Y-107.306
X144.664Y-109.846
X155.614Y-113.661
X158.154Y-113.661
X160.694Y-113.661
X163.234Y-113.661
X165.774Y-113.661
X168.314Y-113.661
X168.654Y-99.826
X168.654Y-107.446
X171.194Y-99.826
X171.194Y-107.446
X172.224Y-113.661
X173.734Y-99.826
X173.734Y-107.446
X173.749Y-90.211
X174.764Y-113.661
X176.274Y-99.826
X176.274Y-107.446
X176.289Y-90.211
X177.304Y-113.661
X178.814Y-99.826
X178.814Y-107.446
X178.829Y-90.211
X179.844Y-113.661
X181.354Y-99.826
X181.354Y-107.446
X181.369Y-90.211
X182.384Y-113.661
X183.894Y-99.826
X183.894Y-107.446
X183.909Y-90.211
X184.924Y-113.661
X186.434Y-99.826
X186.434Y-107.446
X186.449Y-90.211
X187.464Y-113.661
X188.974Y-99.826
X188.974Y-107.446
X188.989Y-90.211
X191.514Y-99.826
X191.514Y-107.446
X191.529Y-90.211
X194.054Y-99.826
X194.054Y-107.446
X196.594Y-99.826
X196.594Y-107.446
X199.134Y-99.826
X199.134Y-107.446
X201.044Y-113.661
X201.674Y-99.826
X201.674Y-107.446
X203.584Y-113.661
X206.124Y-113.661
X208.664Y-113.661
T4
X208.624Y-100.146
X208.624Y-110.306
T5
X215.374Y-92.263
X215.374Y-97.263
M30
