G04 #@! TF.GenerationSoftware,KiCad,Pcbnew,8.0.3*
G04 #@! TF.CreationDate,2024-10-07T11:20:20-06:00*
G04 #@! TF.ProjectId,Atmega328p Board,41746d65-6761-4333-9238-7020426f6172,rev?*
G04 #@! TF.SameCoordinates,Original*
G04 #@! TF.FileFunction,Legend,Top*
G04 #@! TF.FilePolarity,Positive*
%FSLAX46Y46*%
G04 Gerber Fmt 4.6, Leading zero omitted, Abs format (unit mm)*
G04 Created by KiCad (PCBNEW 8.0.3) date 2024-10-07 11:20:20*
%MOMM*%
%LPD*%
G01*
G04 APERTURE LIST*
G04 Aperture macros list*
%AMRoundRect*
0 Rectangle with rounded corners*
0 $1 Rounding radius*
0 $2 $3 $4 $5 $6 $7 $8 $9 X,Y pos of 4 corners*
0 Add a 4 corners polygon primitive as box body*
4,1,4,$2,$3,$4,$5,$6,$7,$8,$9,$2,$3,0*
0 Add four circle primitives for the rounded corners*
1,1,$1+$1,$2,$3*
1,1,$1+$1,$4,$5*
1,1,$1+$1,$6,$7*
1,1,$1+$1,$8,$9*
0 Add four rect primitives between the rounded corners*
20,1,$1+$1,$2,$3,$4,$5,0*
20,1,$1+$1,$4,$5,$6,$7,0*
20,1,$1+$1,$6,$7,$8,$9,0*
20,1,$1+$1,$8,$9,$2,$3,0*%
G04 Aperture macros list end*
%ADD10C,0.200000*%
%ADD11C,0.300000*%
%ADD12C,0.000000*%
%ADD13C,0.120000*%
%ADD14C,0.127000*%
%ADD15C,0.100000*%
%ADD16R,1.600000X1.600000*%
%ADD17C,1.600000*%
%ADD18O,1.600000X1.600000*%
%ADD19RoundRect,0.102000X-0.754000X0.754000X-0.754000X-0.754000X0.754000X-0.754000X0.754000X0.754000X0*%
%ADD20C,1.712000*%
%ADD21R,1.700000X1.700000*%
%ADD22O,1.700000X1.700000*%
%ADD23R,1.070000X1.800000*%
%ADD24O,1.070000X1.800000*%
%ADD25C,1.500000*%
%ADD26R,1.800000X1.800000*%
%ADD27C,1.800000*%
%ADD28R,2.200000X2.200000*%
%ADD29O,2.200000X2.200000*%
%ADD30RoundRect,0.102000X1.050000X-1.050000X1.050000X1.050000X-1.050000X1.050000X-1.050000X-1.050000X0*%
%ADD31C,2.304000*%
G04 APERTURE END LIST*
D10*
X208245019Y-86822054D02*
X208768828Y-86455387D01*
X208245019Y-86193482D02*
X209345019Y-86193482D01*
X209345019Y-86193482D02*
X209345019Y-86612530D01*
X209345019Y-86612530D02*
X209292638Y-86717292D01*
X209292638Y-86717292D02*
X209240257Y-86769673D01*
X209240257Y-86769673D02*
X209135495Y-86822054D01*
X209135495Y-86822054D02*
X208978352Y-86822054D01*
X208978352Y-86822054D02*
X208873590Y-86769673D01*
X208873590Y-86769673D02*
X208821209Y-86717292D01*
X208821209Y-86717292D02*
X208768828Y-86612530D01*
X208768828Y-86612530D02*
X208768828Y-86193482D01*
X208821209Y-87293482D02*
X208821209Y-87660149D01*
X208245019Y-87817292D02*
X208245019Y-87293482D01*
X208245019Y-87293482D02*
X209345019Y-87293482D01*
X209345019Y-87293482D02*
X209345019Y-87817292D01*
X208297400Y-88236339D02*
X208245019Y-88393482D01*
X208245019Y-88393482D02*
X208245019Y-88655387D01*
X208245019Y-88655387D02*
X208297400Y-88760149D01*
X208297400Y-88760149D02*
X208349780Y-88812530D01*
X208349780Y-88812530D02*
X208454542Y-88864911D01*
X208454542Y-88864911D02*
X208559304Y-88864911D01*
X208559304Y-88864911D02*
X208664066Y-88812530D01*
X208664066Y-88812530D02*
X208716447Y-88760149D01*
X208716447Y-88760149D02*
X208768828Y-88655387D01*
X208768828Y-88655387D02*
X208821209Y-88445863D01*
X208821209Y-88445863D02*
X208873590Y-88341101D01*
X208873590Y-88341101D02*
X208925971Y-88288720D01*
X208925971Y-88288720D02*
X209030733Y-88236339D01*
X209030733Y-88236339D02*
X209135495Y-88236339D01*
X209135495Y-88236339D02*
X209240257Y-88288720D01*
X209240257Y-88288720D02*
X209292638Y-88341101D01*
X209292638Y-88341101D02*
X209345019Y-88445863D01*
X209345019Y-88445863D02*
X209345019Y-88707768D01*
X209345019Y-88707768D02*
X209292638Y-88864911D01*
X208821209Y-89336339D02*
X208821209Y-89703006D01*
X208245019Y-89860149D02*
X208245019Y-89336339D01*
X208245019Y-89336339D02*
X209345019Y-89336339D01*
X209345019Y-89336339D02*
X209345019Y-89860149D01*
X209345019Y-90174434D02*
X209345019Y-90803006D01*
X208245019Y-90488720D02*
X209345019Y-90488720D01*
D11*
G36*
X191912875Y-104618080D02*
G01*
X191912875Y-104439661D01*
X191728227Y-104439661D01*
X191728227Y-103971448D01*
X191912875Y-103971448D01*
X191912875Y-103794860D01*
X192469382Y-103794860D01*
X192469382Y-103542801D01*
X191994940Y-103542801D01*
X191994940Y-103721221D01*
X191728227Y-103721221D01*
X191728227Y-103435823D01*
X191912875Y-103435823D01*
X191912875Y-103255205D01*
X192551448Y-103255205D01*
X192551448Y-103435823D01*
X192738293Y-103435823D01*
X192738293Y-103900006D01*
X192551448Y-103900006D01*
X192551448Y-104078426D01*
X191994940Y-104078426D01*
X191994940Y-104332316D01*
X192469382Y-104332316D01*
X192469382Y-104152065D01*
X192738293Y-104152065D01*
X192738293Y-104439661D01*
X192551448Y-104439661D01*
X192551448Y-104618080D01*
X191912875Y-104618080D01*
G37*
G36*
X194236723Y-103435823D02*
G01*
X194423569Y-103435823D01*
X194423569Y-104439661D01*
X194236723Y-104439661D01*
X194236723Y-104618080D01*
X193598150Y-104618080D01*
X193598150Y-104439661D01*
X193413503Y-104439661D01*
X193413503Y-104332316D01*
X193680216Y-104332316D01*
X194154658Y-104332316D01*
X194154658Y-103542801D01*
X193680216Y-103542801D01*
X193680216Y-104332316D01*
X193413503Y-104332316D01*
X193413503Y-103435823D01*
X193598150Y-103435823D01*
X193598150Y-103255205D01*
X194236723Y-103255205D01*
X194236723Y-103435823D01*
G37*
G36*
X195283426Y-104618080D02*
G01*
X195283426Y-104439661D01*
X195098778Y-104439661D01*
X195098778Y-103971448D01*
X195283426Y-103971448D01*
X195283426Y-103794860D01*
X195839933Y-103794860D01*
X195839933Y-103542801D01*
X195365491Y-103542801D01*
X195365491Y-103721221D01*
X195098778Y-103721221D01*
X195098778Y-103435823D01*
X195283426Y-103435823D01*
X195283426Y-103255205D01*
X195921999Y-103255205D01*
X195921999Y-103435823D01*
X196108845Y-103435823D01*
X196108845Y-103900006D01*
X195921999Y-103900006D01*
X195921999Y-104078426D01*
X195365491Y-104078426D01*
X195365491Y-104332316D01*
X195839933Y-104332316D01*
X195839933Y-104152065D01*
X196108845Y-104152065D01*
X196108845Y-104439661D01*
X195921999Y-104439661D01*
X195921999Y-104618080D01*
X195283426Y-104618080D01*
G37*
G36*
X197794120Y-104618080D02*
G01*
X197525209Y-104618080D01*
X197525209Y-104259043D01*
X196784054Y-104259043D01*
X196784054Y-103900006D01*
X197050767Y-103900006D01*
X197050767Y-103971448D01*
X197525209Y-103971448D01*
X197525209Y-103542801D01*
X197422260Y-103542801D01*
X197422260Y-103721221D01*
X197234316Y-103721221D01*
X197234316Y-103900006D01*
X197050767Y-103900006D01*
X196784054Y-103900006D01*
X196784054Y-103794860D01*
X196969434Y-103794860D01*
X196969434Y-103614242D01*
X197152983Y-103614242D01*
X197152983Y-103435823D01*
X197340561Y-103435823D01*
X197340561Y-103255205D01*
X197794120Y-103255205D01*
X197794120Y-104618080D01*
G37*
X216489228Y-88750000D02*
X213489228Y-88750000D01*
X216489228Y-84250000D02*
X213489228Y-84250000D01*
X216489228Y-86450000D02*
X213489228Y-86450000D01*
D10*
X162673985Y-115837350D02*
X163773985Y-115837350D01*
X163773985Y-115837350D02*
X163773985Y-116256398D01*
X163773985Y-116256398D02*
X163721604Y-116361160D01*
X163721604Y-116361160D02*
X163669223Y-116413541D01*
X163669223Y-116413541D02*
X163564461Y-116465922D01*
X163564461Y-116465922D02*
X163407318Y-116465922D01*
X163407318Y-116465922D02*
X163302556Y-116413541D01*
X163302556Y-116413541D02*
X163250175Y-116361160D01*
X163250175Y-116361160D02*
X163197794Y-116256398D01*
X163197794Y-116256398D02*
X163197794Y-115837350D01*
X163250175Y-117304017D02*
X163197794Y-117461160D01*
X163197794Y-117461160D02*
X163145413Y-117513541D01*
X163145413Y-117513541D02*
X163040651Y-117565922D01*
X163040651Y-117565922D02*
X162883508Y-117565922D01*
X162883508Y-117565922D02*
X162778746Y-117513541D01*
X162778746Y-117513541D02*
X162726366Y-117461160D01*
X162726366Y-117461160D02*
X162673985Y-117356398D01*
X162673985Y-117356398D02*
X162673985Y-116937350D01*
X162673985Y-116937350D02*
X163773985Y-116937350D01*
X163773985Y-116937350D02*
X163773985Y-117304017D01*
X163773985Y-117304017D02*
X163721604Y-117408779D01*
X163721604Y-117408779D02*
X163669223Y-117461160D01*
X163669223Y-117461160D02*
X163564461Y-117513541D01*
X163564461Y-117513541D02*
X163459699Y-117513541D01*
X163459699Y-117513541D02*
X163354937Y-117461160D01*
X163354937Y-117461160D02*
X163302556Y-117408779D01*
X163302556Y-117408779D02*
X163250175Y-117304017D01*
X163250175Y-117304017D02*
X163250175Y-116937350D01*
X163773985Y-117932588D02*
X163773985Y-118613541D01*
X163773985Y-118613541D02*
X163354937Y-118246874D01*
X163354937Y-118246874D02*
X163354937Y-118404017D01*
X163354937Y-118404017D02*
X163302556Y-118508779D01*
X163302556Y-118508779D02*
X163250175Y-118561160D01*
X163250175Y-118561160D02*
X163145413Y-118613541D01*
X163145413Y-118613541D02*
X162883508Y-118613541D01*
X162883508Y-118613541D02*
X162778746Y-118561160D01*
X162778746Y-118561160D02*
X162726366Y-118508779D01*
X162726366Y-118508779D02*
X162673985Y-118404017D01*
X162673985Y-118404017D02*
X162673985Y-118089731D01*
X162673985Y-118089731D02*
X162726366Y-117984969D01*
X162726366Y-117984969D02*
X162778746Y-117932588D01*
X175728985Y-85379016D02*
X176828985Y-85379016D01*
X176828985Y-85379016D02*
X176828985Y-85798064D01*
X176828985Y-85798064D02*
X176776604Y-85902826D01*
X176776604Y-85902826D02*
X176724223Y-85955207D01*
X176724223Y-85955207D02*
X176619461Y-86007588D01*
X176619461Y-86007588D02*
X176462318Y-86007588D01*
X176462318Y-86007588D02*
X176357556Y-85955207D01*
X176357556Y-85955207D02*
X176305175Y-85902826D01*
X176305175Y-85902826D02*
X176252794Y-85798064D01*
X176252794Y-85798064D02*
X176252794Y-85379016D01*
X175728985Y-86479016D02*
X176828985Y-86479016D01*
X176828985Y-86479016D02*
X176828985Y-86740921D01*
X176828985Y-86740921D02*
X176776604Y-86898064D01*
X176776604Y-86898064D02*
X176671842Y-87002826D01*
X176671842Y-87002826D02*
X176567080Y-87055207D01*
X176567080Y-87055207D02*
X176357556Y-87107588D01*
X176357556Y-87107588D02*
X176200413Y-87107588D01*
X176200413Y-87107588D02*
X175990889Y-87055207D01*
X175990889Y-87055207D02*
X175886127Y-87002826D01*
X175886127Y-87002826D02*
X175781366Y-86898064D01*
X175781366Y-86898064D02*
X175728985Y-86740921D01*
X175728985Y-86740921D02*
X175728985Y-86479016D01*
X176828985Y-88050445D02*
X176828985Y-87840921D01*
X176828985Y-87840921D02*
X176776604Y-87736159D01*
X176776604Y-87736159D02*
X176724223Y-87683778D01*
X176724223Y-87683778D02*
X176567080Y-87579016D01*
X176567080Y-87579016D02*
X176357556Y-87526635D01*
X176357556Y-87526635D02*
X175938508Y-87526635D01*
X175938508Y-87526635D02*
X175833746Y-87579016D01*
X175833746Y-87579016D02*
X175781366Y-87631397D01*
X175781366Y-87631397D02*
X175728985Y-87736159D01*
X175728985Y-87736159D02*
X175728985Y-87945683D01*
X175728985Y-87945683D02*
X175781366Y-88050445D01*
X175781366Y-88050445D02*
X175833746Y-88102826D01*
X175833746Y-88102826D02*
X175938508Y-88155207D01*
X175938508Y-88155207D02*
X176200413Y-88155207D01*
X176200413Y-88155207D02*
X176305175Y-88102826D01*
X176305175Y-88102826D02*
X176357556Y-88050445D01*
X176357556Y-88050445D02*
X176409937Y-87945683D01*
X176409937Y-87945683D02*
X176409937Y-87736159D01*
X176409937Y-87736159D02*
X176357556Y-87631397D01*
X176357556Y-87631397D02*
X176305175Y-87579016D01*
X176305175Y-87579016D02*
X176200413Y-87526635D01*
X138812709Y-110406014D02*
X138812709Y-109306014D01*
X138812709Y-109306014D02*
X139179376Y-110091729D01*
X139179376Y-110091729D02*
X139546043Y-109306014D01*
X139546043Y-109306014D02*
X139546043Y-110406014D01*
X140279376Y-109306014D02*
X140488900Y-109306014D01*
X140488900Y-109306014D02*
X140593662Y-109358395D01*
X140593662Y-109358395D02*
X140698424Y-109463157D01*
X140698424Y-109463157D02*
X140750805Y-109672681D01*
X140750805Y-109672681D02*
X140750805Y-110039348D01*
X140750805Y-110039348D02*
X140698424Y-110248872D01*
X140698424Y-110248872D02*
X140593662Y-110353634D01*
X140593662Y-110353634D02*
X140488900Y-110406014D01*
X140488900Y-110406014D02*
X140279376Y-110406014D01*
X140279376Y-110406014D02*
X140174614Y-110353634D01*
X140174614Y-110353634D02*
X140069852Y-110248872D01*
X140069852Y-110248872D02*
X140017471Y-110039348D01*
X140017471Y-110039348D02*
X140017471Y-109672681D01*
X140017471Y-109672681D02*
X140069852Y-109463157D01*
X140069852Y-109463157D02*
X140174614Y-109358395D01*
X140174614Y-109358395D02*
X140279376Y-109306014D01*
X141169852Y-110353634D02*
X141326995Y-110406014D01*
X141326995Y-110406014D02*
X141588900Y-110406014D01*
X141588900Y-110406014D02*
X141693662Y-110353634D01*
X141693662Y-110353634D02*
X141746043Y-110301253D01*
X141746043Y-110301253D02*
X141798424Y-110196491D01*
X141798424Y-110196491D02*
X141798424Y-110091729D01*
X141798424Y-110091729D02*
X141746043Y-109986967D01*
X141746043Y-109986967D02*
X141693662Y-109934586D01*
X141693662Y-109934586D02*
X141588900Y-109882205D01*
X141588900Y-109882205D02*
X141379376Y-109829824D01*
X141379376Y-109829824D02*
X141274614Y-109777443D01*
X141274614Y-109777443D02*
X141222233Y-109725062D01*
X141222233Y-109725062D02*
X141169852Y-109620300D01*
X141169852Y-109620300D02*
X141169852Y-109515538D01*
X141169852Y-109515538D02*
X141222233Y-109410776D01*
X141222233Y-109410776D02*
X141274614Y-109358395D01*
X141274614Y-109358395D02*
X141379376Y-109306014D01*
X141379376Y-109306014D02*
X141641281Y-109306014D01*
X141641281Y-109306014D02*
X141798424Y-109358395D01*
X142269852Y-110406014D02*
X142269852Y-109306014D01*
X139493662Y-99146014D02*
X139860329Y-100246014D01*
X139860329Y-100246014D02*
X140226996Y-99146014D01*
X141222234Y-100141253D02*
X141169853Y-100193634D01*
X141169853Y-100193634D02*
X141012710Y-100246014D01*
X141012710Y-100246014D02*
X140907948Y-100246014D01*
X140907948Y-100246014D02*
X140750805Y-100193634D01*
X140750805Y-100193634D02*
X140646043Y-100088872D01*
X140646043Y-100088872D02*
X140593662Y-99984110D01*
X140593662Y-99984110D02*
X140541281Y-99774586D01*
X140541281Y-99774586D02*
X140541281Y-99617443D01*
X140541281Y-99617443D02*
X140593662Y-99407919D01*
X140593662Y-99407919D02*
X140646043Y-99303157D01*
X140646043Y-99303157D02*
X140750805Y-99198395D01*
X140750805Y-99198395D02*
X140907948Y-99146014D01*
X140907948Y-99146014D02*
X141012710Y-99146014D01*
X141012710Y-99146014D02*
X141169853Y-99198395D01*
X141169853Y-99198395D02*
X141222234Y-99250776D01*
X142322234Y-100141253D02*
X142269853Y-100193634D01*
X142269853Y-100193634D02*
X142112710Y-100246014D01*
X142112710Y-100246014D02*
X142007948Y-100246014D01*
X142007948Y-100246014D02*
X141850805Y-100193634D01*
X141850805Y-100193634D02*
X141746043Y-100088872D01*
X141746043Y-100088872D02*
X141693662Y-99984110D01*
X141693662Y-99984110D02*
X141641281Y-99774586D01*
X141641281Y-99774586D02*
X141641281Y-99617443D01*
X141641281Y-99617443D02*
X141693662Y-99407919D01*
X141693662Y-99407919D02*
X141746043Y-99303157D01*
X141746043Y-99303157D02*
X141850805Y-99198395D01*
X141850805Y-99198395D02*
X142007948Y-99146014D01*
X142007948Y-99146014D02*
X142112710Y-99146014D01*
X142112710Y-99146014D02*
X142269853Y-99198395D01*
X142269853Y-99198395D02*
X142322234Y-99250776D01*
X138812709Y-105326014D02*
X138812709Y-104226014D01*
X138812709Y-104226014D02*
X139179376Y-105011729D01*
X139179376Y-105011729D02*
X139546043Y-104226014D01*
X139546043Y-104226014D02*
X139546043Y-105326014D01*
X140069852Y-105326014D02*
X140069852Y-104226014D01*
X140541281Y-105273634D02*
X140698424Y-105326014D01*
X140698424Y-105326014D02*
X140960329Y-105326014D01*
X140960329Y-105326014D02*
X141065091Y-105273634D01*
X141065091Y-105273634D02*
X141117472Y-105221253D01*
X141117472Y-105221253D02*
X141169853Y-105116491D01*
X141169853Y-105116491D02*
X141169853Y-105011729D01*
X141169853Y-105011729D02*
X141117472Y-104906967D01*
X141117472Y-104906967D02*
X141065091Y-104854586D01*
X141065091Y-104854586D02*
X140960329Y-104802205D01*
X140960329Y-104802205D02*
X140750805Y-104749824D01*
X140750805Y-104749824D02*
X140646043Y-104697443D01*
X140646043Y-104697443D02*
X140593662Y-104645062D01*
X140593662Y-104645062D02*
X140541281Y-104540300D01*
X140541281Y-104540300D02*
X140541281Y-104435538D01*
X140541281Y-104435538D02*
X140593662Y-104330776D01*
X140593662Y-104330776D02*
X140646043Y-104278395D01*
X140646043Y-104278395D02*
X140750805Y-104226014D01*
X140750805Y-104226014D02*
X141012710Y-104226014D01*
X141012710Y-104226014D02*
X141169853Y-104278395D01*
X141850805Y-104226014D02*
X142060329Y-104226014D01*
X142060329Y-104226014D02*
X142165091Y-104278395D01*
X142165091Y-104278395D02*
X142269853Y-104383157D01*
X142269853Y-104383157D02*
X142322234Y-104592681D01*
X142322234Y-104592681D02*
X142322234Y-104959348D01*
X142322234Y-104959348D02*
X142269853Y-105168872D01*
X142269853Y-105168872D02*
X142165091Y-105273634D01*
X142165091Y-105273634D02*
X142060329Y-105326014D01*
X142060329Y-105326014D02*
X141850805Y-105326014D01*
X141850805Y-105326014D02*
X141746043Y-105273634D01*
X141746043Y-105273634D02*
X141641281Y-105168872D01*
X141641281Y-105168872D02*
X141588900Y-104959348D01*
X141588900Y-104959348D02*
X141588900Y-104592681D01*
X141588900Y-104592681D02*
X141641281Y-104383157D01*
X141641281Y-104383157D02*
X141746043Y-104278395D01*
X141746043Y-104278395D02*
X141850805Y-104226014D01*
X183348985Y-85379016D02*
X184448985Y-85379016D01*
X184448985Y-85379016D02*
X184448985Y-85798064D01*
X184448985Y-85798064D02*
X184396604Y-85902826D01*
X184396604Y-85902826D02*
X184344223Y-85955207D01*
X184344223Y-85955207D02*
X184239461Y-86007588D01*
X184239461Y-86007588D02*
X184082318Y-86007588D01*
X184082318Y-86007588D02*
X183977556Y-85955207D01*
X183977556Y-85955207D02*
X183925175Y-85902826D01*
X183925175Y-85902826D02*
X183872794Y-85798064D01*
X183872794Y-85798064D02*
X183872794Y-85379016D01*
X183348985Y-86479016D02*
X184448985Y-86479016D01*
X184448985Y-86479016D02*
X184448985Y-86740921D01*
X184448985Y-86740921D02*
X184396604Y-86898064D01*
X184396604Y-86898064D02*
X184291842Y-87002826D01*
X184291842Y-87002826D02*
X184187080Y-87055207D01*
X184187080Y-87055207D02*
X183977556Y-87107588D01*
X183977556Y-87107588D02*
X183820413Y-87107588D01*
X183820413Y-87107588D02*
X183610889Y-87055207D01*
X183610889Y-87055207D02*
X183506127Y-87002826D01*
X183506127Y-87002826D02*
X183401366Y-86898064D01*
X183401366Y-86898064D02*
X183348985Y-86740921D01*
X183348985Y-86740921D02*
X183348985Y-86479016D01*
X184448985Y-87474254D02*
X184448985Y-88155207D01*
X184448985Y-88155207D02*
X184029937Y-87788540D01*
X184029937Y-87788540D02*
X184029937Y-87945683D01*
X184029937Y-87945683D02*
X183977556Y-88050445D01*
X183977556Y-88050445D02*
X183925175Y-88102826D01*
X183925175Y-88102826D02*
X183820413Y-88155207D01*
X183820413Y-88155207D02*
X183558508Y-88155207D01*
X183558508Y-88155207D02*
X183453746Y-88102826D01*
X183453746Y-88102826D02*
X183401366Y-88050445D01*
X183401366Y-88050445D02*
X183348985Y-87945683D01*
X183348985Y-87945683D02*
X183348985Y-87631397D01*
X183348985Y-87631397D02*
X183401366Y-87526635D01*
X183401366Y-87526635D02*
X183453746Y-87474254D01*
X176743985Y-115837350D02*
X177843985Y-115837350D01*
X177843985Y-115837350D02*
X177843985Y-116256398D01*
X177843985Y-116256398D02*
X177791604Y-116361160D01*
X177791604Y-116361160D02*
X177739223Y-116413541D01*
X177739223Y-116413541D02*
X177634461Y-116465922D01*
X177634461Y-116465922D02*
X177477318Y-116465922D01*
X177477318Y-116465922D02*
X177372556Y-116413541D01*
X177372556Y-116413541D02*
X177320175Y-116361160D01*
X177320175Y-116361160D02*
X177267794Y-116256398D01*
X177267794Y-116256398D02*
X177267794Y-115837350D01*
X176848746Y-117565922D02*
X176796366Y-117513541D01*
X176796366Y-117513541D02*
X176743985Y-117356398D01*
X176743985Y-117356398D02*
X176743985Y-117251636D01*
X176743985Y-117251636D02*
X176796366Y-117094493D01*
X176796366Y-117094493D02*
X176901127Y-116989731D01*
X176901127Y-116989731D02*
X177005889Y-116937350D01*
X177005889Y-116937350D02*
X177215413Y-116884969D01*
X177215413Y-116884969D02*
X177372556Y-116884969D01*
X177372556Y-116884969D02*
X177582080Y-116937350D01*
X177582080Y-116937350D02*
X177686842Y-116989731D01*
X177686842Y-116989731D02*
X177791604Y-117094493D01*
X177791604Y-117094493D02*
X177843985Y-117251636D01*
X177843985Y-117251636D02*
X177843985Y-117356398D01*
X177843985Y-117356398D02*
X177791604Y-117513541D01*
X177791604Y-117513541D02*
X177739223Y-117565922D01*
X176743985Y-118613541D02*
X176743985Y-117984969D01*
X176743985Y-118299255D02*
X177843985Y-118299255D01*
X177843985Y-118299255D02*
X177686842Y-118194493D01*
X177686842Y-118194493D02*
X177582080Y-118089731D01*
X177582080Y-118089731D02*
X177529699Y-117984969D01*
X155053985Y-115837350D02*
X156153985Y-115837350D01*
X156153985Y-115837350D02*
X156153985Y-116256398D01*
X156153985Y-116256398D02*
X156101604Y-116361160D01*
X156101604Y-116361160D02*
X156049223Y-116413541D01*
X156049223Y-116413541D02*
X155944461Y-116465922D01*
X155944461Y-116465922D02*
X155787318Y-116465922D01*
X155787318Y-116465922D02*
X155682556Y-116413541D01*
X155682556Y-116413541D02*
X155630175Y-116361160D01*
X155630175Y-116361160D02*
X155577794Y-116256398D01*
X155577794Y-116256398D02*
X155577794Y-115837350D01*
X155630175Y-117304017D02*
X155577794Y-117461160D01*
X155577794Y-117461160D02*
X155525413Y-117513541D01*
X155525413Y-117513541D02*
X155420651Y-117565922D01*
X155420651Y-117565922D02*
X155263508Y-117565922D01*
X155263508Y-117565922D02*
X155158746Y-117513541D01*
X155158746Y-117513541D02*
X155106366Y-117461160D01*
X155106366Y-117461160D02*
X155053985Y-117356398D01*
X155053985Y-117356398D02*
X155053985Y-116937350D01*
X155053985Y-116937350D02*
X156153985Y-116937350D01*
X156153985Y-116937350D02*
X156153985Y-117304017D01*
X156153985Y-117304017D02*
X156101604Y-117408779D01*
X156101604Y-117408779D02*
X156049223Y-117461160D01*
X156049223Y-117461160D02*
X155944461Y-117513541D01*
X155944461Y-117513541D02*
X155839699Y-117513541D01*
X155839699Y-117513541D02*
X155734937Y-117461160D01*
X155734937Y-117461160D02*
X155682556Y-117408779D01*
X155682556Y-117408779D02*
X155630175Y-117304017D01*
X155630175Y-117304017D02*
X155630175Y-116937350D01*
X156153985Y-118246874D02*
X156153985Y-118351636D01*
X156153985Y-118351636D02*
X156101604Y-118456398D01*
X156101604Y-118456398D02*
X156049223Y-118508779D01*
X156049223Y-118508779D02*
X155944461Y-118561160D01*
X155944461Y-118561160D02*
X155734937Y-118613541D01*
X155734937Y-118613541D02*
X155473032Y-118613541D01*
X155473032Y-118613541D02*
X155263508Y-118561160D01*
X155263508Y-118561160D02*
X155158746Y-118508779D01*
X155158746Y-118508779D02*
X155106366Y-118456398D01*
X155106366Y-118456398D02*
X155053985Y-118351636D01*
X155053985Y-118351636D02*
X155053985Y-118246874D01*
X155053985Y-118246874D02*
X155106366Y-118142112D01*
X155106366Y-118142112D02*
X155158746Y-118089731D01*
X155158746Y-118089731D02*
X155263508Y-118037350D01*
X155263508Y-118037350D02*
X155473032Y-117984969D01*
X155473032Y-117984969D02*
X155734937Y-117984969D01*
X155734937Y-117984969D02*
X155944461Y-118037350D01*
X155944461Y-118037350D02*
X156049223Y-118089731D01*
X156049223Y-118089731D02*
X156101604Y-118142112D01*
X156101604Y-118142112D02*
X156153985Y-118246874D01*
X184363985Y-115837350D02*
X185463985Y-115837350D01*
X185463985Y-115837350D02*
X185463985Y-116256398D01*
X185463985Y-116256398D02*
X185411604Y-116361160D01*
X185411604Y-116361160D02*
X185359223Y-116413541D01*
X185359223Y-116413541D02*
X185254461Y-116465922D01*
X185254461Y-116465922D02*
X185097318Y-116465922D01*
X185097318Y-116465922D02*
X184992556Y-116413541D01*
X184992556Y-116413541D02*
X184940175Y-116361160D01*
X184940175Y-116361160D02*
X184887794Y-116256398D01*
X184887794Y-116256398D02*
X184887794Y-115837350D01*
X184468746Y-117565922D02*
X184416366Y-117513541D01*
X184416366Y-117513541D02*
X184363985Y-117356398D01*
X184363985Y-117356398D02*
X184363985Y-117251636D01*
X184363985Y-117251636D02*
X184416366Y-117094493D01*
X184416366Y-117094493D02*
X184521127Y-116989731D01*
X184521127Y-116989731D02*
X184625889Y-116937350D01*
X184625889Y-116937350D02*
X184835413Y-116884969D01*
X184835413Y-116884969D02*
X184992556Y-116884969D01*
X184992556Y-116884969D02*
X185202080Y-116937350D01*
X185202080Y-116937350D02*
X185306842Y-116989731D01*
X185306842Y-116989731D02*
X185411604Y-117094493D01*
X185411604Y-117094493D02*
X185463985Y-117251636D01*
X185463985Y-117251636D02*
X185463985Y-117356398D01*
X185463985Y-117356398D02*
X185411604Y-117513541D01*
X185411604Y-117513541D02*
X185359223Y-117565922D01*
X185097318Y-118508779D02*
X184363985Y-118508779D01*
X185516366Y-118246874D02*
X184730651Y-117984969D01*
X184730651Y-117984969D02*
X184730651Y-118665922D01*
X165213985Y-115837350D02*
X166313985Y-115837350D01*
X166313985Y-115837350D02*
X166313985Y-116256398D01*
X166313985Y-116256398D02*
X166261604Y-116361160D01*
X166261604Y-116361160D02*
X166209223Y-116413541D01*
X166209223Y-116413541D02*
X166104461Y-116465922D01*
X166104461Y-116465922D02*
X165947318Y-116465922D01*
X165947318Y-116465922D02*
X165842556Y-116413541D01*
X165842556Y-116413541D02*
X165790175Y-116361160D01*
X165790175Y-116361160D02*
X165737794Y-116256398D01*
X165737794Y-116256398D02*
X165737794Y-115837350D01*
X165790175Y-117304017D02*
X165737794Y-117461160D01*
X165737794Y-117461160D02*
X165685413Y-117513541D01*
X165685413Y-117513541D02*
X165580651Y-117565922D01*
X165580651Y-117565922D02*
X165423508Y-117565922D01*
X165423508Y-117565922D02*
X165318746Y-117513541D01*
X165318746Y-117513541D02*
X165266366Y-117461160D01*
X165266366Y-117461160D02*
X165213985Y-117356398D01*
X165213985Y-117356398D02*
X165213985Y-116937350D01*
X165213985Y-116937350D02*
X166313985Y-116937350D01*
X166313985Y-116937350D02*
X166313985Y-117304017D01*
X166313985Y-117304017D02*
X166261604Y-117408779D01*
X166261604Y-117408779D02*
X166209223Y-117461160D01*
X166209223Y-117461160D02*
X166104461Y-117513541D01*
X166104461Y-117513541D02*
X165999699Y-117513541D01*
X165999699Y-117513541D02*
X165894937Y-117461160D01*
X165894937Y-117461160D02*
X165842556Y-117408779D01*
X165842556Y-117408779D02*
X165790175Y-117304017D01*
X165790175Y-117304017D02*
X165790175Y-116937350D01*
X165947318Y-118508779D02*
X165213985Y-118508779D01*
X166366366Y-118246874D02*
X165580651Y-117984969D01*
X165580651Y-117984969D02*
X165580651Y-118665922D01*
X180808985Y-85379016D02*
X181908985Y-85379016D01*
X181908985Y-85379016D02*
X181908985Y-85798064D01*
X181908985Y-85798064D02*
X181856604Y-85902826D01*
X181856604Y-85902826D02*
X181804223Y-85955207D01*
X181804223Y-85955207D02*
X181699461Y-86007588D01*
X181699461Y-86007588D02*
X181542318Y-86007588D01*
X181542318Y-86007588D02*
X181437556Y-85955207D01*
X181437556Y-85955207D02*
X181385175Y-85902826D01*
X181385175Y-85902826D02*
X181332794Y-85798064D01*
X181332794Y-85798064D02*
X181332794Y-85379016D01*
X180808985Y-86479016D02*
X181908985Y-86479016D01*
X181908985Y-86479016D02*
X181908985Y-86740921D01*
X181908985Y-86740921D02*
X181856604Y-86898064D01*
X181856604Y-86898064D02*
X181751842Y-87002826D01*
X181751842Y-87002826D02*
X181647080Y-87055207D01*
X181647080Y-87055207D02*
X181437556Y-87107588D01*
X181437556Y-87107588D02*
X181280413Y-87107588D01*
X181280413Y-87107588D02*
X181070889Y-87055207D01*
X181070889Y-87055207D02*
X180966127Y-87002826D01*
X180966127Y-87002826D02*
X180861366Y-86898064D01*
X180861366Y-86898064D02*
X180808985Y-86740921D01*
X180808985Y-86740921D02*
X180808985Y-86479016D01*
X181542318Y-88050445D02*
X180808985Y-88050445D01*
X181961366Y-87788540D02*
X181175651Y-87526635D01*
X181175651Y-87526635D02*
X181175651Y-88207588D01*
X179283985Y-115837350D02*
X180383985Y-115837350D01*
X180383985Y-115837350D02*
X180383985Y-116256398D01*
X180383985Y-116256398D02*
X180331604Y-116361160D01*
X180331604Y-116361160D02*
X180279223Y-116413541D01*
X180279223Y-116413541D02*
X180174461Y-116465922D01*
X180174461Y-116465922D02*
X180017318Y-116465922D01*
X180017318Y-116465922D02*
X179912556Y-116413541D01*
X179912556Y-116413541D02*
X179860175Y-116361160D01*
X179860175Y-116361160D02*
X179807794Y-116256398D01*
X179807794Y-116256398D02*
X179807794Y-115837350D01*
X179388746Y-117565922D02*
X179336366Y-117513541D01*
X179336366Y-117513541D02*
X179283985Y-117356398D01*
X179283985Y-117356398D02*
X179283985Y-117251636D01*
X179283985Y-117251636D02*
X179336366Y-117094493D01*
X179336366Y-117094493D02*
X179441127Y-116989731D01*
X179441127Y-116989731D02*
X179545889Y-116937350D01*
X179545889Y-116937350D02*
X179755413Y-116884969D01*
X179755413Y-116884969D02*
X179912556Y-116884969D01*
X179912556Y-116884969D02*
X180122080Y-116937350D01*
X180122080Y-116937350D02*
X180226842Y-116989731D01*
X180226842Y-116989731D02*
X180331604Y-117094493D01*
X180331604Y-117094493D02*
X180383985Y-117251636D01*
X180383985Y-117251636D02*
X180383985Y-117356398D01*
X180383985Y-117356398D02*
X180331604Y-117513541D01*
X180331604Y-117513541D02*
X180279223Y-117565922D01*
X180279223Y-117984969D02*
X180331604Y-118037350D01*
X180331604Y-118037350D02*
X180383985Y-118142112D01*
X180383985Y-118142112D02*
X180383985Y-118404017D01*
X180383985Y-118404017D02*
X180331604Y-118508779D01*
X180331604Y-118508779D02*
X180279223Y-118561160D01*
X180279223Y-118561160D02*
X180174461Y-118613541D01*
X180174461Y-118613541D02*
X180069699Y-118613541D01*
X180069699Y-118613541D02*
X179912556Y-118561160D01*
X179912556Y-118561160D02*
X179283985Y-117932588D01*
X179283985Y-117932588D02*
X179283985Y-118613541D01*
X186903985Y-115837350D02*
X188003985Y-115837350D01*
X188003985Y-115837350D02*
X188003985Y-116256398D01*
X188003985Y-116256398D02*
X187951604Y-116361160D01*
X187951604Y-116361160D02*
X187899223Y-116413541D01*
X187899223Y-116413541D02*
X187794461Y-116465922D01*
X187794461Y-116465922D02*
X187637318Y-116465922D01*
X187637318Y-116465922D02*
X187532556Y-116413541D01*
X187532556Y-116413541D02*
X187480175Y-116361160D01*
X187480175Y-116361160D02*
X187427794Y-116256398D01*
X187427794Y-116256398D02*
X187427794Y-115837350D01*
X187008746Y-117565922D02*
X186956366Y-117513541D01*
X186956366Y-117513541D02*
X186903985Y-117356398D01*
X186903985Y-117356398D02*
X186903985Y-117251636D01*
X186903985Y-117251636D02*
X186956366Y-117094493D01*
X186956366Y-117094493D02*
X187061127Y-116989731D01*
X187061127Y-116989731D02*
X187165889Y-116937350D01*
X187165889Y-116937350D02*
X187375413Y-116884969D01*
X187375413Y-116884969D02*
X187532556Y-116884969D01*
X187532556Y-116884969D02*
X187742080Y-116937350D01*
X187742080Y-116937350D02*
X187846842Y-116989731D01*
X187846842Y-116989731D02*
X187951604Y-117094493D01*
X187951604Y-117094493D02*
X188003985Y-117251636D01*
X188003985Y-117251636D02*
X188003985Y-117356398D01*
X188003985Y-117356398D02*
X187951604Y-117513541D01*
X187951604Y-117513541D02*
X187899223Y-117565922D01*
X188003985Y-118561160D02*
X188003985Y-118037350D01*
X188003985Y-118037350D02*
X187480175Y-117984969D01*
X187480175Y-117984969D02*
X187532556Y-118037350D01*
X187532556Y-118037350D02*
X187584937Y-118142112D01*
X187584937Y-118142112D02*
X187584937Y-118404017D01*
X187584937Y-118404017D02*
X187532556Y-118508779D01*
X187532556Y-118508779D02*
X187480175Y-118561160D01*
X187480175Y-118561160D02*
X187375413Y-118613541D01*
X187375413Y-118613541D02*
X187113508Y-118613541D01*
X187113508Y-118613541D02*
X187008746Y-118561160D01*
X187008746Y-118561160D02*
X186956366Y-118508779D01*
X186956366Y-118508779D02*
X186903985Y-118404017D01*
X186903985Y-118404017D02*
X186903985Y-118142112D01*
X186903985Y-118142112D02*
X186956366Y-118037350D01*
X186956366Y-118037350D02*
X187008746Y-117984969D01*
X188428985Y-85379016D02*
X189528985Y-85379016D01*
X189528985Y-85379016D02*
X189528985Y-85798064D01*
X189528985Y-85798064D02*
X189476604Y-85902826D01*
X189476604Y-85902826D02*
X189424223Y-85955207D01*
X189424223Y-85955207D02*
X189319461Y-86007588D01*
X189319461Y-86007588D02*
X189162318Y-86007588D01*
X189162318Y-86007588D02*
X189057556Y-85955207D01*
X189057556Y-85955207D02*
X189005175Y-85902826D01*
X189005175Y-85902826D02*
X188952794Y-85798064D01*
X188952794Y-85798064D02*
X188952794Y-85379016D01*
X188428985Y-86479016D02*
X189528985Y-86479016D01*
X189528985Y-86479016D02*
X189528985Y-86740921D01*
X189528985Y-86740921D02*
X189476604Y-86898064D01*
X189476604Y-86898064D02*
X189371842Y-87002826D01*
X189371842Y-87002826D02*
X189267080Y-87055207D01*
X189267080Y-87055207D02*
X189057556Y-87107588D01*
X189057556Y-87107588D02*
X188900413Y-87107588D01*
X188900413Y-87107588D02*
X188690889Y-87055207D01*
X188690889Y-87055207D02*
X188586127Y-87002826D01*
X188586127Y-87002826D02*
X188481366Y-86898064D01*
X188481366Y-86898064D02*
X188428985Y-86740921D01*
X188428985Y-86740921D02*
X188428985Y-86479016D01*
X188428985Y-88155207D02*
X188428985Y-87526635D01*
X188428985Y-87840921D02*
X189528985Y-87840921D01*
X189528985Y-87840921D02*
X189371842Y-87736159D01*
X189371842Y-87736159D02*
X189267080Y-87631397D01*
X189267080Y-87631397D02*
X189214699Y-87526635D01*
X185888985Y-85379016D02*
X186988985Y-85379016D01*
X186988985Y-85379016D02*
X186988985Y-85798064D01*
X186988985Y-85798064D02*
X186936604Y-85902826D01*
X186936604Y-85902826D02*
X186884223Y-85955207D01*
X186884223Y-85955207D02*
X186779461Y-86007588D01*
X186779461Y-86007588D02*
X186622318Y-86007588D01*
X186622318Y-86007588D02*
X186517556Y-85955207D01*
X186517556Y-85955207D02*
X186465175Y-85902826D01*
X186465175Y-85902826D02*
X186412794Y-85798064D01*
X186412794Y-85798064D02*
X186412794Y-85379016D01*
X185888985Y-86479016D02*
X186988985Y-86479016D01*
X186988985Y-86479016D02*
X186988985Y-86740921D01*
X186988985Y-86740921D02*
X186936604Y-86898064D01*
X186936604Y-86898064D02*
X186831842Y-87002826D01*
X186831842Y-87002826D02*
X186727080Y-87055207D01*
X186727080Y-87055207D02*
X186517556Y-87107588D01*
X186517556Y-87107588D02*
X186360413Y-87107588D01*
X186360413Y-87107588D02*
X186150889Y-87055207D01*
X186150889Y-87055207D02*
X186046127Y-87002826D01*
X186046127Y-87002826D02*
X185941366Y-86898064D01*
X185941366Y-86898064D02*
X185888985Y-86740921D01*
X185888985Y-86740921D02*
X185888985Y-86479016D01*
X186884223Y-87526635D02*
X186936604Y-87579016D01*
X186936604Y-87579016D02*
X186988985Y-87683778D01*
X186988985Y-87683778D02*
X186988985Y-87945683D01*
X186988985Y-87945683D02*
X186936604Y-88050445D01*
X186936604Y-88050445D02*
X186884223Y-88102826D01*
X186884223Y-88102826D02*
X186779461Y-88155207D01*
X186779461Y-88155207D02*
X186674699Y-88155207D01*
X186674699Y-88155207D02*
X186517556Y-88102826D01*
X186517556Y-88102826D02*
X185888985Y-87474254D01*
X185888985Y-87474254D02*
X185888985Y-88155207D01*
X139493662Y-107813634D02*
X139650805Y-107866014D01*
X139650805Y-107866014D02*
X139912710Y-107866014D01*
X139912710Y-107866014D02*
X140017472Y-107813634D01*
X140017472Y-107813634D02*
X140069853Y-107761253D01*
X140069853Y-107761253D02*
X140122234Y-107656491D01*
X140122234Y-107656491D02*
X140122234Y-107551729D01*
X140122234Y-107551729D02*
X140069853Y-107446967D01*
X140069853Y-107446967D02*
X140017472Y-107394586D01*
X140017472Y-107394586D02*
X139912710Y-107342205D01*
X139912710Y-107342205D02*
X139703186Y-107289824D01*
X139703186Y-107289824D02*
X139598424Y-107237443D01*
X139598424Y-107237443D02*
X139546043Y-107185062D01*
X139546043Y-107185062D02*
X139493662Y-107080300D01*
X139493662Y-107080300D02*
X139493662Y-106975538D01*
X139493662Y-106975538D02*
X139546043Y-106870776D01*
X139546043Y-106870776D02*
X139598424Y-106818395D01*
X139598424Y-106818395D02*
X139703186Y-106766014D01*
X139703186Y-106766014D02*
X139965091Y-106766014D01*
X139965091Y-106766014D02*
X140122234Y-106818395D01*
X141222234Y-107761253D02*
X141169853Y-107813634D01*
X141169853Y-107813634D02*
X141012710Y-107866014D01*
X141012710Y-107866014D02*
X140907948Y-107866014D01*
X140907948Y-107866014D02*
X140750805Y-107813634D01*
X140750805Y-107813634D02*
X140646043Y-107708872D01*
X140646043Y-107708872D02*
X140593662Y-107604110D01*
X140593662Y-107604110D02*
X140541281Y-107394586D01*
X140541281Y-107394586D02*
X140541281Y-107237443D01*
X140541281Y-107237443D02*
X140593662Y-107027919D01*
X140593662Y-107027919D02*
X140646043Y-106923157D01*
X140646043Y-106923157D02*
X140750805Y-106818395D01*
X140750805Y-106818395D02*
X140907948Y-106766014D01*
X140907948Y-106766014D02*
X141012710Y-106766014D01*
X141012710Y-106766014D02*
X141169853Y-106818395D01*
X141169853Y-106818395D02*
X141222234Y-106870776D01*
X141693662Y-107866014D02*
X141693662Y-106766014D01*
X142322234Y-107866014D02*
X141850805Y-107237443D01*
X142322234Y-106766014D02*
X141693662Y-107394586D01*
X214227949Y-87157361D02*
X214123187Y-87104980D01*
X214123187Y-87104980D02*
X213966044Y-87104980D01*
X213966044Y-87104980D02*
X213808901Y-87157361D01*
X213808901Y-87157361D02*
X213704139Y-87262123D01*
X213704139Y-87262123D02*
X213651758Y-87366885D01*
X213651758Y-87366885D02*
X213599377Y-87576409D01*
X213599377Y-87576409D02*
X213599377Y-87733552D01*
X213599377Y-87733552D02*
X213651758Y-87943076D01*
X213651758Y-87943076D02*
X213704139Y-88047838D01*
X213704139Y-88047838D02*
X213808901Y-88152600D01*
X213808901Y-88152600D02*
X213966044Y-88204980D01*
X213966044Y-88204980D02*
X214070806Y-88204980D01*
X214070806Y-88204980D02*
X214227949Y-88152600D01*
X214227949Y-88152600D02*
X214280330Y-88100219D01*
X214280330Y-88100219D02*
X214280330Y-87733552D01*
X214280330Y-87733552D02*
X214070806Y-87733552D01*
X214751758Y-88204980D02*
X214751758Y-87104980D01*
X214751758Y-87104980D02*
X215380330Y-88204980D01*
X215380330Y-88204980D02*
X215380330Y-87104980D01*
X215904139Y-88204980D02*
X215904139Y-87104980D01*
X215904139Y-87104980D02*
X216166044Y-87104980D01*
X216166044Y-87104980D02*
X216323187Y-87157361D01*
X216323187Y-87157361D02*
X216427949Y-87262123D01*
X216427949Y-87262123D02*
X216480330Y-87366885D01*
X216480330Y-87366885D02*
X216532711Y-87576409D01*
X216532711Y-87576409D02*
X216532711Y-87733552D01*
X216532711Y-87733552D02*
X216480330Y-87943076D01*
X216480330Y-87943076D02*
X216427949Y-88047838D01*
X216427949Y-88047838D02*
X216323187Y-88152600D01*
X216323187Y-88152600D02*
X216166044Y-88204980D01*
X216166044Y-88204980D02*
X215904139Y-88204980D01*
X140436520Y-97706014D02*
X140069853Y-97182205D01*
X139807948Y-97706014D02*
X139807948Y-96606014D01*
X139807948Y-96606014D02*
X140226996Y-96606014D01*
X140226996Y-96606014D02*
X140331758Y-96658395D01*
X140331758Y-96658395D02*
X140384139Y-96710776D01*
X140384139Y-96710776D02*
X140436520Y-96815538D01*
X140436520Y-96815538D02*
X140436520Y-96972681D01*
X140436520Y-96972681D02*
X140384139Y-97077443D01*
X140384139Y-97077443D02*
X140331758Y-97129824D01*
X140331758Y-97129824D02*
X140226996Y-97182205D01*
X140226996Y-97182205D02*
X139807948Y-97182205D01*
X140855567Y-97653634D02*
X141012710Y-97706014D01*
X141012710Y-97706014D02*
X141274615Y-97706014D01*
X141274615Y-97706014D02*
X141379377Y-97653634D01*
X141379377Y-97653634D02*
X141431758Y-97601253D01*
X141431758Y-97601253D02*
X141484139Y-97496491D01*
X141484139Y-97496491D02*
X141484139Y-97391729D01*
X141484139Y-97391729D02*
X141431758Y-97286967D01*
X141431758Y-97286967D02*
X141379377Y-97234586D01*
X141379377Y-97234586D02*
X141274615Y-97182205D01*
X141274615Y-97182205D02*
X141065091Y-97129824D01*
X141065091Y-97129824D02*
X140960329Y-97077443D01*
X140960329Y-97077443D02*
X140907948Y-97025062D01*
X140907948Y-97025062D02*
X140855567Y-96920300D01*
X140855567Y-96920300D02*
X140855567Y-96815538D01*
X140855567Y-96815538D02*
X140907948Y-96710776D01*
X140907948Y-96710776D02*
X140960329Y-96658395D01*
X140960329Y-96658395D02*
X141065091Y-96606014D01*
X141065091Y-96606014D02*
X141326996Y-96606014D01*
X141326996Y-96606014D02*
X141484139Y-96658395D01*
X141798424Y-96606014D02*
X142426996Y-96606014D01*
X142112710Y-97706014D02*
X142112710Y-96606014D01*
X181823985Y-115837350D02*
X182923985Y-115837350D01*
X182923985Y-115837350D02*
X182923985Y-116256398D01*
X182923985Y-116256398D02*
X182871604Y-116361160D01*
X182871604Y-116361160D02*
X182819223Y-116413541D01*
X182819223Y-116413541D02*
X182714461Y-116465922D01*
X182714461Y-116465922D02*
X182557318Y-116465922D01*
X182557318Y-116465922D02*
X182452556Y-116413541D01*
X182452556Y-116413541D02*
X182400175Y-116361160D01*
X182400175Y-116361160D02*
X182347794Y-116256398D01*
X182347794Y-116256398D02*
X182347794Y-115837350D01*
X181928746Y-117565922D02*
X181876366Y-117513541D01*
X181876366Y-117513541D02*
X181823985Y-117356398D01*
X181823985Y-117356398D02*
X181823985Y-117251636D01*
X181823985Y-117251636D02*
X181876366Y-117094493D01*
X181876366Y-117094493D02*
X181981127Y-116989731D01*
X181981127Y-116989731D02*
X182085889Y-116937350D01*
X182085889Y-116937350D02*
X182295413Y-116884969D01*
X182295413Y-116884969D02*
X182452556Y-116884969D01*
X182452556Y-116884969D02*
X182662080Y-116937350D01*
X182662080Y-116937350D02*
X182766842Y-116989731D01*
X182766842Y-116989731D02*
X182871604Y-117094493D01*
X182871604Y-117094493D02*
X182923985Y-117251636D01*
X182923985Y-117251636D02*
X182923985Y-117356398D01*
X182923985Y-117356398D02*
X182871604Y-117513541D01*
X182871604Y-117513541D02*
X182819223Y-117565922D01*
X182923985Y-117932588D02*
X182923985Y-118613541D01*
X182923985Y-118613541D02*
X182504937Y-118246874D01*
X182504937Y-118246874D02*
X182504937Y-118404017D01*
X182504937Y-118404017D02*
X182452556Y-118508779D01*
X182452556Y-118508779D02*
X182400175Y-118561160D01*
X182400175Y-118561160D02*
X182295413Y-118613541D01*
X182295413Y-118613541D02*
X182033508Y-118613541D01*
X182033508Y-118613541D02*
X181928746Y-118561160D01*
X181928746Y-118561160D02*
X181876366Y-118508779D01*
X181876366Y-118508779D02*
X181823985Y-118404017D01*
X181823985Y-118404017D02*
X181823985Y-118089731D01*
X181823985Y-118089731D02*
X181876366Y-117984969D01*
X181876366Y-117984969D02*
X181928746Y-117932588D01*
X160133985Y-115837350D02*
X161233985Y-115837350D01*
X161233985Y-115837350D02*
X161233985Y-116256398D01*
X161233985Y-116256398D02*
X161181604Y-116361160D01*
X161181604Y-116361160D02*
X161129223Y-116413541D01*
X161129223Y-116413541D02*
X161024461Y-116465922D01*
X161024461Y-116465922D02*
X160867318Y-116465922D01*
X160867318Y-116465922D02*
X160762556Y-116413541D01*
X160762556Y-116413541D02*
X160710175Y-116361160D01*
X160710175Y-116361160D02*
X160657794Y-116256398D01*
X160657794Y-116256398D02*
X160657794Y-115837350D01*
X160710175Y-117304017D02*
X160657794Y-117461160D01*
X160657794Y-117461160D02*
X160605413Y-117513541D01*
X160605413Y-117513541D02*
X160500651Y-117565922D01*
X160500651Y-117565922D02*
X160343508Y-117565922D01*
X160343508Y-117565922D02*
X160238746Y-117513541D01*
X160238746Y-117513541D02*
X160186366Y-117461160D01*
X160186366Y-117461160D02*
X160133985Y-117356398D01*
X160133985Y-117356398D02*
X160133985Y-116937350D01*
X160133985Y-116937350D02*
X161233985Y-116937350D01*
X161233985Y-116937350D02*
X161233985Y-117304017D01*
X161233985Y-117304017D02*
X161181604Y-117408779D01*
X161181604Y-117408779D02*
X161129223Y-117461160D01*
X161129223Y-117461160D02*
X161024461Y-117513541D01*
X161024461Y-117513541D02*
X160919699Y-117513541D01*
X160919699Y-117513541D02*
X160814937Y-117461160D01*
X160814937Y-117461160D02*
X160762556Y-117408779D01*
X160762556Y-117408779D02*
X160710175Y-117304017D01*
X160710175Y-117304017D02*
X160710175Y-116937350D01*
X161129223Y-117984969D02*
X161181604Y-118037350D01*
X161181604Y-118037350D02*
X161233985Y-118142112D01*
X161233985Y-118142112D02*
X161233985Y-118404017D01*
X161233985Y-118404017D02*
X161181604Y-118508779D01*
X161181604Y-118508779D02*
X161129223Y-118561160D01*
X161129223Y-118561160D02*
X161024461Y-118613541D01*
X161024461Y-118613541D02*
X160919699Y-118613541D01*
X160919699Y-118613541D02*
X160762556Y-118561160D01*
X160762556Y-118561160D02*
X160133985Y-117932588D01*
X160133985Y-117932588D02*
X160133985Y-118613541D01*
X140017472Y-101738395D02*
X139912710Y-101686014D01*
X139912710Y-101686014D02*
X139755567Y-101686014D01*
X139755567Y-101686014D02*
X139598424Y-101738395D01*
X139598424Y-101738395D02*
X139493662Y-101843157D01*
X139493662Y-101843157D02*
X139441281Y-101947919D01*
X139441281Y-101947919D02*
X139388900Y-102157443D01*
X139388900Y-102157443D02*
X139388900Y-102314586D01*
X139388900Y-102314586D02*
X139441281Y-102524110D01*
X139441281Y-102524110D02*
X139493662Y-102628872D01*
X139493662Y-102628872D02*
X139598424Y-102733634D01*
X139598424Y-102733634D02*
X139755567Y-102786014D01*
X139755567Y-102786014D02*
X139860329Y-102786014D01*
X139860329Y-102786014D02*
X140017472Y-102733634D01*
X140017472Y-102733634D02*
X140069853Y-102681253D01*
X140069853Y-102681253D02*
X140069853Y-102314586D01*
X140069853Y-102314586D02*
X139860329Y-102314586D01*
X140541281Y-102786014D02*
X140541281Y-101686014D01*
X140541281Y-101686014D02*
X141169853Y-102786014D01*
X141169853Y-102786014D02*
X141169853Y-101686014D01*
X141693662Y-102786014D02*
X141693662Y-101686014D01*
X141693662Y-101686014D02*
X141955567Y-101686014D01*
X141955567Y-101686014D02*
X142112710Y-101738395D01*
X142112710Y-101738395D02*
X142217472Y-101843157D01*
X142217472Y-101843157D02*
X142269853Y-101947919D01*
X142269853Y-101947919D02*
X142322234Y-102157443D01*
X142322234Y-102157443D02*
X142322234Y-102314586D01*
X142322234Y-102314586D02*
X142269853Y-102524110D01*
X142269853Y-102524110D02*
X142217472Y-102628872D01*
X142217472Y-102628872D02*
X142112710Y-102733634D01*
X142112710Y-102733634D02*
X141955567Y-102786014D01*
X141955567Y-102786014D02*
X141693662Y-102786014D01*
X213756520Y-84804980D02*
X213232710Y-84804980D01*
X213232710Y-84804980D02*
X213180329Y-85328790D01*
X213180329Y-85328790D02*
X213232710Y-85276409D01*
X213232710Y-85276409D02*
X213337472Y-85224028D01*
X213337472Y-85224028D02*
X213599377Y-85224028D01*
X213599377Y-85224028D02*
X213704139Y-85276409D01*
X213704139Y-85276409D02*
X213756520Y-85328790D01*
X213756520Y-85328790D02*
X213808901Y-85433552D01*
X213808901Y-85433552D02*
X213808901Y-85695457D01*
X213808901Y-85695457D02*
X213756520Y-85800219D01*
X213756520Y-85800219D02*
X213704139Y-85852600D01*
X213704139Y-85852600D02*
X213599377Y-85904980D01*
X213599377Y-85904980D02*
X213337472Y-85904980D01*
X213337472Y-85904980D02*
X213232710Y-85852600D01*
X213232710Y-85852600D02*
X213180329Y-85800219D01*
X214123186Y-84804980D02*
X214489853Y-85904980D01*
X214489853Y-85904980D02*
X214856520Y-84804980D01*
X215223186Y-85904980D02*
X215223186Y-84804980D01*
X215223186Y-84804980D02*
X215485091Y-84804980D01*
X215485091Y-84804980D02*
X215642234Y-84857361D01*
X215642234Y-84857361D02*
X215746996Y-84962123D01*
X215746996Y-84962123D02*
X215799377Y-85066885D01*
X215799377Y-85066885D02*
X215851758Y-85276409D01*
X215851758Y-85276409D02*
X215851758Y-85433552D01*
X215851758Y-85433552D02*
X215799377Y-85643076D01*
X215799377Y-85643076D02*
X215746996Y-85747838D01*
X215746996Y-85747838D02*
X215642234Y-85852600D01*
X215642234Y-85852600D02*
X215485091Y-85904980D01*
X215485091Y-85904980D02*
X215223186Y-85904980D01*
X216951758Y-85800219D02*
X216899377Y-85852600D01*
X216899377Y-85852600D02*
X216742234Y-85904980D01*
X216742234Y-85904980D02*
X216637472Y-85904980D01*
X216637472Y-85904980D02*
X216480329Y-85852600D01*
X216480329Y-85852600D02*
X216375567Y-85747838D01*
X216375567Y-85747838D02*
X216323186Y-85643076D01*
X216323186Y-85643076D02*
X216270805Y-85433552D01*
X216270805Y-85433552D02*
X216270805Y-85276409D01*
X216270805Y-85276409D02*
X216323186Y-85066885D01*
X216323186Y-85066885D02*
X216375567Y-84962123D01*
X216375567Y-84962123D02*
X216480329Y-84857361D01*
X216480329Y-84857361D02*
X216637472Y-84804980D01*
X216637472Y-84804980D02*
X216742234Y-84804980D01*
X216742234Y-84804980D02*
X216899377Y-84857361D01*
X216899377Y-84857361D02*
X216951758Y-84909742D01*
X171978270Y-115784969D02*
X171978270Y-116308779D01*
X171663985Y-115680207D02*
X172763985Y-116046874D01*
X172763985Y-116046874D02*
X171663985Y-116413541D01*
X171663985Y-117408779D02*
X172187794Y-117042112D01*
X171663985Y-116780207D02*
X172763985Y-116780207D01*
X172763985Y-116780207D02*
X172763985Y-117199255D01*
X172763985Y-117199255D02*
X172711604Y-117304017D01*
X172711604Y-117304017D02*
X172659223Y-117356398D01*
X172659223Y-117356398D02*
X172554461Y-117408779D01*
X172554461Y-117408779D02*
X172397318Y-117408779D01*
X172397318Y-117408779D02*
X172292556Y-117356398D01*
X172292556Y-117356398D02*
X172240175Y-117304017D01*
X172240175Y-117304017D02*
X172187794Y-117199255D01*
X172187794Y-117199255D02*
X172187794Y-116780207D01*
X172240175Y-117880207D02*
X172240175Y-118246874D01*
X171663985Y-118404017D02*
X171663985Y-117880207D01*
X171663985Y-117880207D02*
X172763985Y-117880207D01*
X172763985Y-117880207D02*
X172763985Y-118404017D01*
X172240175Y-119242112D02*
X172240175Y-118875445D01*
X171663985Y-118875445D02*
X172763985Y-118875445D01*
X172763985Y-118875445D02*
X172763985Y-119399255D01*
X174203985Y-115837350D02*
X175303985Y-115837350D01*
X175303985Y-115837350D02*
X175303985Y-116256398D01*
X175303985Y-116256398D02*
X175251604Y-116361160D01*
X175251604Y-116361160D02*
X175199223Y-116413541D01*
X175199223Y-116413541D02*
X175094461Y-116465922D01*
X175094461Y-116465922D02*
X174937318Y-116465922D01*
X174937318Y-116465922D02*
X174832556Y-116413541D01*
X174832556Y-116413541D02*
X174780175Y-116361160D01*
X174780175Y-116361160D02*
X174727794Y-116256398D01*
X174727794Y-116256398D02*
X174727794Y-115837350D01*
X174308746Y-117565922D02*
X174256366Y-117513541D01*
X174256366Y-117513541D02*
X174203985Y-117356398D01*
X174203985Y-117356398D02*
X174203985Y-117251636D01*
X174203985Y-117251636D02*
X174256366Y-117094493D01*
X174256366Y-117094493D02*
X174361127Y-116989731D01*
X174361127Y-116989731D02*
X174465889Y-116937350D01*
X174465889Y-116937350D02*
X174675413Y-116884969D01*
X174675413Y-116884969D02*
X174832556Y-116884969D01*
X174832556Y-116884969D02*
X175042080Y-116937350D01*
X175042080Y-116937350D02*
X175146842Y-116989731D01*
X175146842Y-116989731D02*
X175251604Y-117094493D01*
X175251604Y-117094493D02*
X175303985Y-117251636D01*
X175303985Y-117251636D02*
X175303985Y-117356398D01*
X175303985Y-117356398D02*
X175251604Y-117513541D01*
X175251604Y-117513541D02*
X175199223Y-117565922D01*
X175303985Y-118246874D02*
X175303985Y-118351636D01*
X175303985Y-118351636D02*
X175251604Y-118456398D01*
X175251604Y-118456398D02*
X175199223Y-118508779D01*
X175199223Y-118508779D02*
X175094461Y-118561160D01*
X175094461Y-118561160D02*
X174884937Y-118613541D01*
X174884937Y-118613541D02*
X174623032Y-118613541D01*
X174623032Y-118613541D02*
X174413508Y-118561160D01*
X174413508Y-118561160D02*
X174308746Y-118508779D01*
X174308746Y-118508779D02*
X174256366Y-118456398D01*
X174256366Y-118456398D02*
X174203985Y-118351636D01*
X174203985Y-118351636D02*
X174203985Y-118246874D01*
X174203985Y-118246874D02*
X174256366Y-118142112D01*
X174256366Y-118142112D02*
X174308746Y-118089731D01*
X174308746Y-118089731D02*
X174413508Y-118037350D01*
X174413508Y-118037350D02*
X174623032Y-117984969D01*
X174623032Y-117984969D02*
X174884937Y-117984969D01*
X174884937Y-117984969D02*
X175094461Y-118037350D01*
X175094461Y-118037350D02*
X175199223Y-118089731D01*
X175199223Y-118089731D02*
X175251604Y-118142112D01*
X175251604Y-118142112D02*
X175303985Y-118246874D01*
X173188985Y-85379016D02*
X174288985Y-85379016D01*
X174288985Y-85379016D02*
X174288985Y-85798064D01*
X174288985Y-85798064D02*
X174236604Y-85902826D01*
X174236604Y-85902826D02*
X174184223Y-85955207D01*
X174184223Y-85955207D02*
X174079461Y-86007588D01*
X174079461Y-86007588D02*
X173922318Y-86007588D01*
X173922318Y-86007588D02*
X173817556Y-85955207D01*
X173817556Y-85955207D02*
X173765175Y-85902826D01*
X173765175Y-85902826D02*
X173712794Y-85798064D01*
X173712794Y-85798064D02*
X173712794Y-85379016D01*
X173188985Y-86479016D02*
X174288985Y-86479016D01*
X174288985Y-86479016D02*
X174288985Y-86740921D01*
X174288985Y-86740921D02*
X174236604Y-86898064D01*
X174236604Y-86898064D02*
X174131842Y-87002826D01*
X174131842Y-87002826D02*
X174027080Y-87055207D01*
X174027080Y-87055207D02*
X173817556Y-87107588D01*
X173817556Y-87107588D02*
X173660413Y-87107588D01*
X173660413Y-87107588D02*
X173450889Y-87055207D01*
X173450889Y-87055207D02*
X173346127Y-87002826D01*
X173346127Y-87002826D02*
X173241366Y-86898064D01*
X173241366Y-86898064D02*
X173188985Y-86740921D01*
X173188985Y-86740921D02*
X173188985Y-86479016D01*
X174288985Y-87474254D02*
X174288985Y-88207588D01*
X174288985Y-88207588D02*
X173188985Y-87736159D01*
X178268985Y-85379016D02*
X179368985Y-85379016D01*
X179368985Y-85379016D02*
X179368985Y-85798064D01*
X179368985Y-85798064D02*
X179316604Y-85902826D01*
X179316604Y-85902826D02*
X179264223Y-85955207D01*
X179264223Y-85955207D02*
X179159461Y-86007588D01*
X179159461Y-86007588D02*
X179002318Y-86007588D01*
X179002318Y-86007588D02*
X178897556Y-85955207D01*
X178897556Y-85955207D02*
X178845175Y-85902826D01*
X178845175Y-85902826D02*
X178792794Y-85798064D01*
X178792794Y-85798064D02*
X178792794Y-85379016D01*
X178268985Y-86479016D02*
X179368985Y-86479016D01*
X179368985Y-86479016D02*
X179368985Y-86740921D01*
X179368985Y-86740921D02*
X179316604Y-86898064D01*
X179316604Y-86898064D02*
X179211842Y-87002826D01*
X179211842Y-87002826D02*
X179107080Y-87055207D01*
X179107080Y-87055207D02*
X178897556Y-87107588D01*
X178897556Y-87107588D02*
X178740413Y-87107588D01*
X178740413Y-87107588D02*
X178530889Y-87055207D01*
X178530889Y-87055207D02*
X178426127Y-87002826D01*
X178426127Y-87002826D02*
X178321366Y-86898064D01*
X178321366Y-86898064D02*
X178268985Y-86740921D01*
X178268985Y-86740921D02*
X178268985Y-86479016D01*
X179368985Y-88102826D02*
X179368985Y-87579016D01*
X179368985Y-87579016D02*
X178845175Y-87526635D01*
X178845175Y-87526635D02*
X178897556Y-87579016D01*
X178897556Y-87579016D02*
X178949937Y-87683778D01*
X178949937Y-87683778D02*
X178949937Y-87945683D01*
X178949937Y-87945683D02*
X178897556Y-88050445D01*
X178897556Y-88050445D02*
X178845175Y-88102826D01*
X178845175Y-88102826D02*
X178740413Y-88155207D01*
X178740413Y-88155207D02*
X178478508Y-88155207D01*
X178478508Y-88155207D02*
X178373746Y-88102826D01*
X178373746Y-88102826D02*
X178321366Y-88050445D01*
X178321366Y-88050445D02*
X178268985Y-87945683D01*
X178268985Y-87945683D02*
X178268985Y-87683778D01*
X178268985Y-87683778D02*
X178321366Y-87579016D01*
X178321366Y-87579016D02*
X178373746Y-87526635D01*
X190968985Y-85379016D02*
X192068985Y-85379016D01*
X192068985Y-85379016D02*
X192068985Y-85798064D01*
X192068985Y-85798064D02*
X192016604Y-85902826D01*
X192016604Y-85902826D02*
X191964223Y-85955207D01*
X191964223Y-85955207D02*
X191859461Y-86007588D01*
X191859461Y-86007588D02*
X191702318Y-86007588D01*
X191702318Y-86007588D02*
X191597556Y-85955207D01*
X191597556Y-85955207D02*
X191545175Y-85902826D01*
X191545175Y-85902826D02*
X191492794Y-85798064D01*
X191492794Y-85798064D02*
X191492794Y-85379016D01*
X190968985Y-86479016D02*
X192068985Y-86479016D01*
X192068985Y-86479016D02*
X192068985Y-86740921D01*
X192068985Y-86740921D02*
X192016604Y-86898064D01*
X192016604Y-86898064D02*
X191911842Y-87002826D01*
X191911842Y-87002826D02*
X191807080Y-87055207D01*
X191807080Y-87055207D02*
X191597556Y-87107588D01*
X191597556Y-87107588D02*
X191440413Y-87107588D01*
X191440413Y-87107588D02*
X191230889Y-87055207D01*
X191230889Y-87055207D02*
X191126127Y-87002826D01*
X191126127Y-87002826D02*
X191021366Y-86898064D01*
X191021366Y-86898064D02*
X190968985Y-86740921D01*
X190968985Y-86740921D02*
X190968985Y-86479016D01*
X192068985Y-87788540D02*
X192068985Y-87893302D01*
X192068985Y-87893302D02*
X192016604Y-87998064D01*
X192016604Y-87998064D02*
X191964223Y-88050445D01*
X191964223Y-88050445D02*
X191859461Y-88102826D01*
X191859461Y-88102826D02*
X191649937Y-88155207D01*
X191649937Y-88155207D02*
X191388032Y-88155207D01*
X191388032Y-88155207D02*
X191178508Y-88102826D01*
X191178508Y-88102826D02*
X191073746Y-88050445D01*
X191073746Y-88050445D02*
X191021366Y-87998064D01*
X191021366Y-87998064D02*
X190968985Y-87893302D01*
X190968985Y-87893302D02*
X190968985Y-87788540D01*
X190968985Y-87788540D02*
X191021366Y-87683778D01*
X191021366Y-87683778D02*
X191073746Y-87631397D01*
X191073746Y-87631397D02*
X191178508Y-87579016D01*
X191178508Y-87579016D02*
X191388032Y-87526635D01*
X191388032Y-87526635D02*
X191649937Y-87526635D01*
X191649937Y-87526635D02*
X191859461Y-87579016D01*
X191859461Y-87579016D02*
X191964223Y-87631397D01*
X191964223Y-87631397D02*
X192016604Y-87683778D01*
X192016604Y-87683778D02*
X192068985Y-87788540D01*
X167753985Y-115837350D02*
X168853985Y-115837350D01*
X168853985Y-115837350D02*
X168853985Y-116256398D01*
X168853985Y-116256398D02*
X168801604Y-116361160D01*
X168801604Y-116361160D02*
X168749223Y-116413541D01*
X168749223Y-116413541D02*
X168644461Y-116465922D01*
X168644461Y-116465922D02*
X168487318Y-116465922D01*
X168487318Y-116465922D02*
X168382556Y-116413541D01*
X168382556Y-116413541D02*
X168330175Y-116361160D01*
X168330175Y-116361160D02*
X168277794Y-116256398D01*
X168277794Y-116256398D02*
X168277794Y-115837350D01*
X168330175Y-117304017D02*
X168277794Y-117461160D01*
X168277794Y-117461160D02*
X168225413Y-117513541D01*
X168225413Y-117513541D02*
X168120651Y-117565922D01*
X168120651Y-117565922D02*
X167963508Y-117565922D01*
X167963508Y-117565922D02*
X167858746Y-117513541D01*
X167858746Y-117513541D02*
X167806366Y-117461160D01*
X167806366Y-117461160D02*
X167753985Y-117356398D01*
X167753985Y-117356398D02*
X167753985Y-116937350D01*
X167753985Y-116937350D02*
X168853985Y-116937350D01*
X168853985Y-116937350D02*
X168853985Y-117304017D01*
X168853985Y-117304017D02*
X168801604Y-117408779D01*
X168801604Y-117408779D02*
X168749223Y-117461160D01*
X168749223Y-117461160D02*
X168644461Y-117513541D01*
X168644461Y-117513541D02*
X168539699Y-117513541D01*
X168539699Y-117513541D02*
X168434937Y-117461160D01*
X168434937Y-117461160D02*
X168382556Y-117408779D01*
X168382556Y-117408779D02*
X168330175Y-117304017D01*
X168330175Y-117304017D02*
X168330175Y-116937350D01*
X168853985Y-118561160D02*
X168853985Y-118037350D01*
X168853985Y-118037350D02*
X168330175Y-117984969D01*
X168330175Y-117984969D02*
X168382556Y-118037350D01*
X168382556Y-118037350D02*
X168434937Y-118142112D01*
X168434937Y-118142112D02*
X168434937Y-118404017D01*
X168434937Y-118404017D02*
X168382556Y-118508779D01*
X168382556Y-118508779D02*
X168330175Y-118561160D01*
X168330175Y-118561160D02*
X168225413Y-118613541D01*
X168225413Y-118613541D02*
X167963508Y-118613541D01*
X167963508Y-118613541D02*
X167858746Y-118561160D01*
X167858746Y-118561160D02*
X167806366Y-118508779D01*
X167806366Y-118508779D02*
X167753985Y-118404017D01*
X167753985Y-118404017D02*
X167753985Y-118142112D01*
X167753985Y-118142112D02*
X167806366Y-118037350D01*
X167806366Y-118037350D02*
X167858746Y-117984969D01*
X157593985Y-115837350D02*
X158693985Y-115837350D01*
X158693985Y-115837350D02*
X158693985Y-116256398D01*
X158693985Y-116256398D02*
X158641604Y-116361160D01*
X158641604Y-116361160D02*
X158589223Y-116413541D01*
X158589223Y-116413541D02*
X158484461Y-116465922D01*
X158484461Y-116465922D02*
X158327318Y-116465922D01*
X158327318Y-116465922D02*
X158222556Y-116413541D01*
X158222556Y-116413541D02*
X158170175Y-116361160D01*
X158170175Y-116361160D02*
X158117794Y-116256398D01*
X158117794Y-116256398D02*
X158117794Y-115837350D01*
X158170175Y-117304017D02*
X158117794Y-117461160D01*
X158117794Y-117461160D02*
X158065413Y-117513541D01*
X158065413Y-117513541D02*
X157960651Y-117565922D01*
X157960651Y-117565922D02*
X157803508Y-117565922D01*
X157803508Y-117565922D02*
X157698746Y-117513541D01*
X157698746Y-117513541D02*
X157646366Y-117461160D01*
X157646366Y-117461160D02*
X157593985Y-117356398D01*
X157593985Y-117356398D02*
X157593985Y-116937350D01*
X157593985Y-116937350D02*
X158693985Y-116937350D01*
X158693985Y-116937350D02*
X158693985Y-117304017D01*
X158693985Y-117304017D02*
X158641604Y-117408779D01*
X158641604Y-117408779D02*
X158589223Y-117461160D01*
X158589223Y-117461160D02*
X158484461Y-117513541D01*
X158484461Y-117513541D02*
X158379699Y-117513541D01*
X158379699Y-117513541D02*
X158274937Y-117461160D01*
X158274937Y-117461160D02*
X158222556Y-117408779D01*
X158222556Y-117408779D02*
X158170175Y-117304017D01*
X158170175Y-117304017D02*
X158170175Y-116937350D01*
X157593985Y-118613541D02*
X157593985Y-117984969D01*
X157593985Y-118299255D02*
X158693985Y-118299255D01*
X158693985Y-118299255D02*
X158536842Y-118194493D01*
X158536842Y-118194493D02*
X158432080Y-118089731D01*
X158432080Y-118089731D02*
X158379699Y-117984969D01*
X201531604Y-116465922D02*
X201583985Y-116361160D01*
X201583985Y-116361160D02*
X201583985Y-116204017D01*
X201583985Y-116204017D02*
X201531604Y-116046874D01*
X201531604Y-116046874D02*
X201426842Y-115942112D01*
X201426842Y-115942112D02*
X201322080Y-115889731D01*
X201322080Y-115889731D02*
X201112556Y-115837350D01*
X201112556Y-115837350D02*
X200955413Y-115837350D01*
X200955413Y-115837350D02*
X200745889Y-115889731D01*
X200745889Y-115889731D02*
X200641127Y-115942112D01*
X200641127Y-115942112D02*
X200536366Y-116046874D01*
X200536366Y-116046874D02*
X200483985Y-116204017D01*
X200483985Y-116204017D02*
X200483985Y-116308779D01*
X200483985Y-116308779D02*
X200536366Y-116465922D01*
X200536366Y-116465922D02*
X200588746Y-116518303D01*
X200588746Y-116518303D02*
X200955413Y-116518303D01*
X200955413Y-116518303D02*
X200955413Y-116308779D01*
X200483985Y-116989731D02*
X201583985Y-116989731D01*
X201583985Y-116989731D02*
X200483985Y-117618303D01*
X200483985Y-117618303D02*
X201583985Y-117618303D01*
X200483985Y-118142112D02*
X201583985Y-118142112D01*
X201583985Y-118142112D02*
X201583985Y-118404017D01*
X201583985Y-118404017D02*
X201531604Y-118561160D01*
X201531604Y-118561160D02*
X201426842Y-118665922D01*
X201426842Y-118665922D02*
X201322080Y-118718303D01*
X201322080Y-118718303D02*
X201112556Y-118770684D01*
X201112556Y-118770684D02*
X200955413Y-118770684D01*
X200955413Y-118770684D02*
X200745889Y-118718303D01*
X200745889Y-118718303D02*
X200641127Y-118665922D01*
X200641127Y-118665922D02*
X200536366Y-118561160D01*
X200536366Y-118561160D02*
X200483985Y-118404017D01*
X200483985Y-118404017D02*
X200483985Y-118142112D01*
X204123985Y-115732588D02*
X203023985Y-116099255D01*
X203023985Y-116099255D02*
X204123985Y-116465922D01*
X203128746Y-117461160D02*
X203076366Y-117408779D01*
X203076366Y-117408779D02*
X203023985Y-117251636D01*
X203023985Y-117251636D02*
X203023985Y-117146874D01*
X203023985Y-117146874D02*
X203076366Y-116989731D01*
X203076366Y-116989731D02*
X203181127Y-116884969D01*
X203181127Y-116884969D02*
X203285889Y-116832588D01*
X203285889Y-116832588D02*
X203495413Y-116780207D01*
X203495413Y-116780207D02*
X203652556Y-116780207D01*
X203652556Y-116780207D02*
X203862080Y-116832588D01*
X203862080Y-116832588D02*
X203966842Y-116884969D01*
X203966842Y-116884969D02*
X204071604Y-116989731D01*
X204071604Y-116989731D02*
X204123985Y-117146874D01*
X204123985Y-117146874D02*
X204123985Y-117251636D01*
X204123985Y-117251636D02*
X204071604Y-117408779D01*
X204071604Y-117408779D02*
X204019223Y-117461160D01*
X203128746Y-118561160D02*
X203076366Y-118508779D01*
X203076366Y-118508779D02*
X203023985Y-118351636D01*
X203023985Y-118351636D02*
X203023985Y-118246874D01*
X203023985Y-118246874D02*
X203076366Y-118089731D01*
X203076366Y-118089731D02*
X203181127Y-117984969D01*
X203181127Y-117984969D02*
X203285889Y-117932588D01*
X203285889Y-117932588D02*
X203495413Y-117880207D01*
X203495413Y-117880207D02*
X203652556Y-117880207D01*
X203652556Y-117880207D02*
X203862080Y-117932588D01*
X203862080Y-117932588D02*
X203966842Y-117984969D01*
X203966842Y-117984969D02*
X204071604Y-118089731D01*
X204071604Y-118089731D02*
X204123985Y-118246874D01*
X204123985Y-118246874D02*
X204123985Y-118351636D01*
X204123985Y-118351636D02*
X204071604Y-118508779D01*
X204071604Y-118508779D02*
X204019223Y-118561160D01*
X205616366Y-115837350D02*
X205563985Y-115994493D01*
X205563985Y-115994493D02*
X205563985Y-116256398D01*
X205563985Y-116256398D02*
X205616366Y-116361160D01*
X205616366Y-116361160D02*
X205668746Y-116413541D01*
X205668746Y-116413541D02*
X205773508Y-116465922D01*
X205773508Y-116465922D02*
X205878270Y-116465922D01*
X205878270Y-116465922D02*
X205983032Y-116413541D01*
X205983032Y-116413541D02*
X206035413Y-116361160D01*
X206035413Y-116361160D02*
X206087794Y-116256398D01*
X206087794Y-116256398D02*
X206140175Y-116046874D01*
X206140175Y-116046874D02*
X206192556Y-115942112D01*
X206192556Y-115942112D02*
X206244937Y-115889731D01*
X206244937Y-115889731D02*
X206349699Y-115837350D01*
X206349699Y-115837350D02*
X206454461Y-115837350D01*
X206454461Y-115837350D02*
X206559223Y-115889731D01*
X206559223Y-115889731D02*
X206611604Y-115942112D01*
X206611604Y-115942112D02*
X206663985Y-116046874D01*
X206663985Y-116046874D02*
X206663985Y-116308779D01*
X206663985Y-116308779D02*
X206611604Y-116465922D01*
X205668746Y-117565922D02*
X205616366Y-117513541D01*
X205616366Y-117513541D02*
X205563985Y-117356398D01*
X205563985Y-117356398D02*
X205563985Y-117251636D01*
X205563985Y-117251636D02*
X205616366Y-117094493D01*
X205616366Y-117094493D02*
X205721127Y-116989731D01*
X205721127Y-116989731D02*
X205825889Y-116937350D01*
X205825889Y-116937350D02*
X206035413Y-116884969D01*
X206035413Y-116884969D02*
X206192556Y-116884969D01*
X206192556Y-116884969D02*
X206402080Y-116937350D01*
X206402080Y-116937350D02*
X206506842Y-116989731D01*
X206506842Y-116989731D02*
X206611604Y-117094493D01*
X206611604Y-117094493D02*
X206663985Y-117251636D01*
X206663985Y-117251636D02*
X206663985Y-117356398D01*
X206663985Y-117356398D02*
X206611604Y-117513541D01*
X206611604Y-117513541D02*
X206559223Y-117565922D01*
X205563985Y-118561160D02*
X205563985Y-118037350D01*
X205563985Y-118037350D02*
X206663985Y-118037350D01*
X208156366Y-115837350D02*
X208103985Y-115994493D01*
X208103985Y-115994493D02*
X208103985Y-116256398D01*
X208103985Y-116256398D02*
X208156366Y-116361160D01*
X208156366Y-116361160D02*
X208208746Y-116413541D01*
X208208746Y-116413541D02*
X208313508Y-116465922D01*
X208313508Y-116465922D02*
X208418270Y-116465922D01*
X208418270Y-116465922D02*
X208523032Y-116413541D01*
X208523032Y-116413541D02*
X208575413Y-116361160D01*
X208575413Y-116361160D02*
X208627794Y-116256398D01*
X208627794Y-116256398D02*
X208680175Y-116046874D01*
X208680175Y-116046874D02*
X208732556Y-115942112D01*
X208732556Y-115942112D02*
X208784937Y-115889731D01*
X208784937Y-115889731D02*
X208889699Y-115837350D01*
X208889699Y-115837350D02*
X208994461Y-115837350D01*
X208994461Y-115837350D02*
X209099223Y-115889731D01*
X209099223Y-115889731D02*
X209151604Y-115942112D01*
X209151604Y-115942112D02*
X209203985Y-116046874D01*
X209203985Y-116046874D02*
X209203985Y-116308779D01*
X209203985Y-116308779D02*
X209151604Y-116465922D01*
X208103985Y-116937350D02*
X209203985Y-116937350D01*
X209203985Y-116937350D02*
X209203985Y-117199255D01*
X209203985Y-117199255D02*
X209151604Y-117356398D01*
X209151604Y-117356398D02*
X209046842Y-117461160D01*
X209046842Y-117461160D02*
X208942080Y-117513541D01*
X208942080Y-117513541D02*
X208732556Y-117565922D01*
X208732556Y-117565922D02*
X208575413Y-117565922D01*
X208575413Y-117565922D02*
X208365889Y-117513541D01*
X208365889Y-117513541D02*
X208261127Y-117461160D01*
X208261127Y-117461160D02*
X208156366Y-117356398D01*
X208156366Y-117356398D02*
X208103985Y-117199255D01*
X208103985Y-117199255D02*
X208103985Y-116937350D01*
X208418270Y-117984969D02*
X208418270Y-118508779D01*
X208103985Y-117880207D02*
X209203985Y-118246874D01*
X209203985Y-118246874D02*
X208103985Y-118613541D01*
D12*
G36*
X173902280Y-103514500D02*
G01*
X173902280Y-104512269D01*
X174382687Y-104512269D01*
X174863094Y-104512269D01*
X174863094Y-104338779D01*
X174863094Y-104165289D01*
X175054026Y-104172484D01*
X175244957Y-104179680D01*
X175244957Y-104364452D01*
X175244957Y-104549224D01*
X175078662Y-104556509D01*
X174912367Y-104563793D01*
X174912367Y-104722803D01*
X174912367Y-104881814D01*
X174382687Y-104881814D01*
X173853007Y-104881814D01*
X173853007Y-104721678D01*
X173853007Y-104561542D01*
X173692871Y-104561542D01*
X173532736Y-104561542D01*
X173532736Y-103539137D01*
X173532736Y-102516731D01*
X173717508Y-102516731D01*
X173902280Y-102516731D01*
X173902280Y-103514500D01*
G37*
G36*
X176390543Y-102675741D02*
G01*
X176390543Y-102834751D01*
X176556838Y-102842036D01*
X176723133Y-102849321D01*
X176730007Y-103175751D01*
X176736881Y-103502182D01*
X176871666Y-103502182D01*
X177006450Y-103502182D01*
X177006450Y-103169592D01*
X177006450Y-102837003D01*
X177178904Y-102837003D01*
X177351358Y-102837003D01*
X177351358Y-102676867D01*
X177351358Y-102516731D01*
X177536130Y-102516731D01*
X177720902Y-102516731D01*
X177720902Y-102675741D01*
X177720902Y-102834751D01*
X177887197Y-102842036D01*
X178053492Y-102849321D01*
X178059924Y-103865567D01*
X178066357Y-104881814D01*
X177868993Y-104881814D01*
X177671630Y-104881814D01*
X177671630Y-103884044D01*
X177671630Y-102886275D01*
X177536130Y-102886275D01*
X177400631Y-102886275D01*
X177400631Y-103218865D01*
X177400631Y-103551455D01*
X177228177Y-103551455D01*
X177055723Y-103551455D01*
X177055723Y-104057535D01*
X177055723Y-104563615D01*
X176864792Y-104556419D01*
X176673861Y-104549224D01*
X176667191Y-104050339D01*
X176660522Y-103551455D01*
X176500897Y-103551455D01*
X176341271Y-103551455D01*
X176341271Y-103218865D01*
X176341271Y-102886275D01*
X176205771Y-102886275D01*
X176070272Y-102886275D01*
X176070272Y-103884044D01*
X176070272Y-104881814D01*
X175873182Y-104881814D01*
X175676091Y-104881814D01*
X175676091Y-103859408D01*
X175676091Y-102837003D01*
X175836227Y-102837003D01*
X175996363Y-102837003D01*
X175996363Y-102676867D01*
X175996363Y-102516731D01*
X176193453Y-102516731D01*
X176390543Y-102516731D01*
X176390543Y-102675741D01*
G37*
G36*
X186163852Y-109636372D02*
G01*
X186163852Y-109744511D01*
X186276946Y-109749465D01*
X186390040Y-109754419D01*
X186390040Y-109880079D01*
X186390040Y-110005739D01*
X186260973Y-110010618D01*
X186131906Y-110015497D01*
X186126936Y-109901713D01*
X186121966Y-109787929D01*
X186029815Y-109787929D01*
X185937665Y-109787929D01*
X185933286Y-110462302D01*
X185928908Y-111136675D01*
X185795061Y-111136675D01*
X185661214Y-111136675D01*
X185661214Y-110457238D01*
X185661214Y-109777800D01*
X185573252Y-109782864D01*
X185485290Y-109787929D01*
X185480336Y-109901022D01*
X185475382Y-110014116D01*
X185350488Y-110014116D01*
X185225594Y-110014116D01*
X185225594Y-109880079D01*
X185225594Y-109746042D01*
X185334499Y-109746042D01*
X185443404Y-109746042D01*
X185443404Y-109637137D01*
X185443404Y-109528232D01*
X185803628Y-109528232D01*
X186163852Y-109528232D01*
X186163852Y-109636372D01*
G37*
G36*
X202516359Y-110089512D02*
G01*
X202516359Y-110198417D01*
X202625264Y-110198417D01*
X202734169Y-110198417D01*
X202734169Y-110558641D01*
X202734169Y-110918865D01*
X202625264Y-110918865D01*
X202516359Y-110918865D01*
X202516359Y-111027770D01*
X202516359Y-111136675D01*
X202172889Y-111136675D01*
X201829420Y-111136675D01*
X201829420Y-111354485D01*
X201829420Y-111572295D01*
X201695195Y-111572295D01*
X201560970Y-111572295D01*
X201565346Y-110889545D01*
X201565373Y-110885356D01*
X201829420Y-110885356D01*
X202147757Y-110885356D01*
X202466095Y-110885356D01*
X202466095Y-110558641D01*
X202466095Y-110231926D01*
X202147757Y-110231926D01*
X201829420Y-110231926D01*
X201829420Y-110558641D01*
X201829420Y-110885356D01*
X201565373Y-110885356D01*
X201567467Y-110558641D01*
X201569723Y-110206794D01*
X201682817Y-110201840D01*
X201795910Y-110196886D01*
X201795910Y-110088746D01*
X201795910Y-109980607D01*
X202156135Y-109980607D01*
X202516359Y-109980607D01*
X202516359Y-110089512D01*
G37*
G36*
X187889578Y-110089512D02*
G01*
X187889578Y-110198417D01*
X187981728Y-110198417D01*
X188073879Y-110198417D01*
X188073879Y-110089512D01*
X188073879Y-109980607D01*
X188325198Y-109980607D01*
X188576517Y-109980607D01*
X188576517Y-110089512D01*
X188576517Y-110198417D01*
X188685422Y-110198417D01*
X188794327Y-110198417D01*
X188794327Y-110667546D01*
X188794327Y-111136675D01*
X188668668Y-111136675D01*
X188543008Y-111136675D01*
X188543008Y-110684301D01*
X188543008Y-110231926D01*
X188333575Y-110231926D01*
X188124143Y-110231926D01*
X188124143Y-110684301D01*
X188124143Y-111136675D01*
X187990106Y-111136675D01*
X187856069Y-111136675D01*
X187856069Y-110684301D01*
X187856069Y-110231926D01*
X187646636Y-110231926D01*
X187437203Y-110231926D01*
X187437203Y-110684301D01*
X187437203Y-111136675D01*
X187303166Y-111136675D01*
X187169129Y-111136675D01*
X187169129Y-110558641D01*
X187169129Y-109980607D01*
X187529354Y-109980607D01*
X187889578Y-109980607D01*
X187889578Y-110089512D01*
G37*
G36*
X194440633Y-110089512D02*
G01*
X194440633Y-110198417D01*
X194557916Y-110198417D01*
X194675198Y-110198417D01*
X194675198Y-110541886D01*
X194675198Y-110885356D01*
X194792480Y-110885356D01*
X194909763Y-110885356D01*
X194909763Y-111011016D01*
X194909763Y-111136675D01*
X194775726Y-111136675D01*
X194641689Y-111136675D01*
X194641689Y-111027770D01*
X194641689Y-110918865D01*
X194541161Y-110918865D01*
X194440633Y-110918865D01*
X194440633Y-111027770D01*
X194440633Y-111136675D01*
X194088786Y-111136675D01*
X193736939Y-111136675D01*
X193736939Y-111027770D01*
X193736939Y-110918865D01*
X193619657Y-110918865D01*
X193502375Y-110918865D01*
X193502375Y-110885356D01*
X193770449Y-110885356D01*
X194088786Y-110885356D01*
X194407124Y-110885356D01*
X194407124Y-110558641D01*
X194407124Y-110231926D01*
X194088786Y-110231926D01*
X193770449Y-110231926D01*
X193770449Y-110558641D01*
X193770449Y-110885356D01*
X193502375Y-110885356D01*
X193502375Y-110558641D01*
X193502375Y-110198417D01*
X193619657Y-110198417D01*
X193736939Y-110198417D01*
X193736939Y-110089512D01*
X193736939Y-109980607D01*
X194088786Y-109980607D01*
X194440633Y-109980607D01*
X194440633Y-110089512D01*
G37*
G36*
X190536807Y-110089512D02*
G01*
X190536807Y-110198417D01*
X190645712Y-110198417D01*
X190754618Y-110198417D01*
X190754618Y-110333158D01*
X190754618Y-110467900D01*
X190624769Y-110463007D01*
X190494921Y-110458113D01*
X190489967Y-110345020D01*
X190485013Y-110231926D01*
X190167440Y-110231926D01*
X189849868Y-110231926D01*
X189849868Y-110332454D01*
X189849868Y-110432981D01*
X190076056Y-110432981D01*
X190302243Y-110432981D01*
X190302243Y-110558641D01*
X190302243Y-110684301D01*
X190076056Y-110684301D01*
X189849868Y-110684301D01*
X189849868Y-110784828D01*
X189849868Y-110885356D01*
X190168206Y-110885356D01*
X190486544Y-110885356D01*
X190486544Y-110768074D01*
X190486544Y-110650791D01*
X190620581Y-110650791D01*
X190754618Y-110650791D01*
X190754618Y-110776451D01*
X190754618Y-110902111D01*
X190645712Y-110902111D01*
X190536807Y-110902111D01*
X190536807Y-111019393D01*
X190536807Y-111136675D01*
X190176583Y-111136675D01*
X189816359Y-111136675D01*
X189816359Y-111028536D01*
X189816359Y-110920396D01*
X189703265Y-110915442D01*
X189590172Y-110910488D01*
X189590172Y-110558641D01*
X189590172Y-110206794D01*
X189703265Y-110201840D01*
X189816359Y-110196886D01*
X189816359Y-110088746D01*
X189816359Y-109980607D01*
X190176583Y-109980607D01*
X190536807Y-109980607D01*
X190536807Y-110089512D01*
G37*
G36*
X192480343Y-110089512D02*
G01*
X192480343Y-110198417D01*
X192597625Y-110198417D01*
X192714908Y-110198417D01*
X192714908Y-110784828D01*
X192714908Y-111371240D01*
X192597625Y-111371240D01*
X192480343Y-111371240D01*
X192480343Y-111480145D01*
X192480343Y-111589050D01*
X192128496Y-111589050D01*
X191776649Y-111589050D01*
X191776649Y-111480145D01*
X191776649Y-111371240D01*
X191659367Y-111371240D01*
X191542085Y-111371240D01*
X191542085Y-111237203D01*
X191542085Y-111103166D01*
X191676121Y-111103166D01*
X191810158Y-111103166D01*
X191810158Y-111220448D01*
X191810158Y-111337731D01*
X192128496Y-111337731D01*
X192446834Y-111337731D01*
X192446834Y-111128298D01*
X192446834Y-110918865D01*
X192111742Y-110918865D01*
X191776649Y-110918865D01*
X191776649Y-110801583D01*
X191776649Y-110684301D01*
X191659367Y-110684301D01*
X191542085Y-110684301D01*
X191542085Y-110650791D01*
X191810158Y-110650791D01*
X192128496Y-110650791D01*
X192446834Y-110650791D01*
X192446834Y-110441359D01*
X192446834Y-110231926D01*
X192128496Y-110231926D01*
X191810158Y-110231926D01*
X191810158Y-110441359D01*
X191810158Y-110650791D01*
X191542085Y-110650791D01*
X191542085Y-110441359D01*
X191542085Y-110198417D01*
X191659367Y-110198417D01*
X191776649Y-110198417D01*
X191776649Y-110089512D01*
X191776649Y-109980607D01*
X192128496Y-109980607D01*
X192480343Y-109980607D01*
X192480343Y-110089512D01*
G37*
G36*
X196635488Y-109636372D02*
G01*
X196635488Y-109744511D01*
X196748582Y-109749465D01*
X196861676Y-109754419D01*
X196866324Y-109993173D01*
X196870973Y-110231926D01*
X196753231Y-110231926D01*
X196635488Y-110231926D01*
X196635488Y-110332454D01*
X196635488Y-110432981D01*
X196753231Y-110432981D01*
X196870973Y-110432981D01*
X196866324Y-110671735D01*
X196861676Y-110910488D01*
X196748582Y-110915442D01*
X196635488Y-110920396D01*
X196635488Y-111028536D01*
X196635488Y-111136675D01*
X196275264Y-111136675D01*
X195915040Y-111136675D01*
X195915040Y-111027770D01*
X195915040Y-110918865D01*
X195806135Y-110918865D01*
X195697230Y-110918865D01*
X195697230Y-110784828D01*
X195697230Y-110650791D01*
X195822889Y-110650791D01*
X195948549Y-110650791D01*
X195948549Y-110768074D01*
X195948549Y-110885356D01*
X196275264Y-110885356D01*
X196601979Y-110885356D01*
X196601979Y-110675923D01*
X196601979Y-110466491D01*
X196258509Y-110466491D01*
X195915040Y-110466491D01*
X195915040Y-110332454D01*
X195915040Y-110198417D01*
X196259025Y-110198417D01*
X196603010Y-110198417D01*
X196598306Y-109993173D01*
X196593602Y-109787929D01*
X196275264Y-109787929D01*
X195956926Y-109787929D01*
X195951972Y-109901022D01*
X195947018Y-110014116D01*
X195822124Y-110014116D01*
X195697230Y-110014116D01*
X195697230Y-109880079D01*
X195697230Y-109746042D01*
X195806135Y-109746042D01*
X195915040Y-109746042D01*
X195915040Y-109637137D01*
X195915040Y-109528232D01*
X196275264Y-109528232D01*
X196635488Y-109528232D01*
X196635488Y-109636372D01*
G37*
G36*
X198595778Y-109636372D02*
G01*
X198595778Y-109744511D01*
X198708872Y-109749465D01*
X198821966Y-109754419D01*
X198826614Y-109993173D01*
X198831263Y-110231926D01*
X198714286Y-110231926D01*
X198597309Y-110231926D01*
X198592355Y-110345020D01*
X198587401Y-110458113D01*
X198248120Y-110462649D01*
X197908839Y-110467184D01*
X197908839Y-110676270D01*
X197908839Y-110885356D01*
X198235554Y-110885356D01*
X198562269Y-110885356D01*
X198562269Y-110767369D01*
X198562269Y-110649382D01*
X198692118Y-110654275D01*
X198821966Y-110659169D01*
X198821966Y-110784828D01*
X198821966Y-110910488D01*
X198708872Y-110915442D01*
X198595778Y-110920396D01*
X198595778Y-111028536D01*
X198595778Y-111136675D01*
X198235554Y-111136675D01*
X197875330Y-111136675D01*
X197875330Y-111027770D01*
X197875330Y-110918865D01*
X197766425Y-110918865D01*
X197657520Y-110918865D01*
X197657520Y-110675923D01*
X197657520Y-110432981D01*
X197766425Y-110432981D01*
X197875330Y-110432981D01*
X197875330Y-110315699D01*
X197875330Y-110198417D01*
X198219315Y-110198417D01*
X198563301Y-110198417D01*
X198558596Y-109993173D01*
X198553892Y-109787929D01*
X198235554Y-109787929D01*
X197917216Y-109787929D01*
X197912262Y-109901022D01*
X197907308Y-110014116D01*
X197782414Y-110014116D01*
X197657520Y-110014116D01*
X197657520Y-109880079D01*
X197657520Y-109746042D01*
X197766425Y-109746042D01*
X197875330Y-109746042D01*
X197875330Y-109637137D01*
X197875330Y-109528232D01*
X198235554Y-109528232D01*
X198595778Y-109528232D01*
X198595778Y-109636372D01*
G37*
G36*
X183968997Y-109636372D02*
G01*
X183968997Y-109744511D01*
X184082091Y-109749465D01*
X184195185Y-109754419D01*
X184200139Y-109867513D01*
X184205093Y-109980607D01*
X184321610Y-109980607D01*
X184438127Y-109980607D01*
X184438127Y-110558641D01*
X184438127Y-111136675D01*
X184304090Y-111136675D01*
X184170053Y-111136675D01*
X184170053Y-110910488D01*
X184170053Y-110684301D01*
X183843338Y-110684301D01*
X183516623Y-110684301D01*
X183516623Y-110910488D01*
X183516623Y-111136675D01*
X183390963Y-111136675D01*
X183265304Y-111136675D01*
X183265304Y-110558641D01*
X183265304Y-110212379D01*
X183516623Y-110212379D01*
X183517545Y-110290800D01*
X183520055Y-110356616D01*
X183523765Y-110402792D01*
X183528151Y-110422170D01*
X183547805Y-110425579D01*
X183595495Y-110428098D01*
X183665756Y-110429608D01*
X183753124Y-110429991D01*
X183850677Y-110429151D01*
X184161676Y-110424604D01*
X184166380Y-110219360D01*
X184171084Y-110014116D01*
X184053286Y-110014116D01*
X183935488Y-110014116D01*
X183935488Y-109896834D01*
X183935488Y-109779551D01*
X183843338Y-109779551D01*
X183751187Y-109779551D01*
X183751187Y-109896834D01*
X183751187Y-110014116D01*
X183633905Y-110014116D01*
X183516623Y-110014116D01*
X183516623Y-110212379D01*
X183265304Y-110212379D01*
X183265304Y-110014116D01*
X183265304Y-109980607D01*
X183374209Y-109980607D01*
X183483114Y-109980607D01*
X183483114Y-109863324D01*
X183483114Y-109746042D01*
X183592019Y-109746042D01*
X183700924Y-109746042D01*
X183700924Y-109637137D01*
X183700924Y-109528232D01*
X183834961Y-109528232D01*
X183968997Y-109528232D01*
X183968997Y-109636372D01*
G37*
G36*
X200556069Y-109637137D02*
G01*
X200556069Y-109746042D01*
X200664974Y-109746042D01*
X200773879Y-109746042D01*
X200773879Y-109988984D01*
X200773879Y-110231926D01*
X200664974Y-110231926D01*
X200556069Y-110231926D01*
X200556069Y-110332454D01*
X200556069Y-110432981D01*
X200664974Y-110432981D01*
X200773879Y-110432981D01*
X200773879Y-110675923D01*
X200773879Y-110918865D01*
X200664974Y-110918865D01*
X200556069Y-110918865D01*
X200556069Y-111027770D01*
X200556069Y-111136675D01*
X200195844Y-111136675D01*
X199835620Y-111136675D01*
X199835620Y-111028536D01*
X199835620Y-110920396D01*
X199722526Y-110915442D01*
X199609433Y-110910488D01*
X199608944Y-110885356D01*
X199869129Y-110885356D01*
X200187467Y-110885356D01*
X200505805Y-110885356D01*
X200505805Y-110675923D01*
X200505805Y-110466491D01*
X200187467Y-110466491D01*
X199869129Y-110466491D01*
X199869129Y-110675923D01*
X199869129Y-110885356D01*
X199608944Y-110885356D01*
X199604866Y-110675923D01*
X199604784Y-110671735D01*
X199600135Y-110432981D01*
X199717878Y-110432981D01*
X199835620Y-110432981D01*
X199835620Y-110332454D01*
X199835620Y-110231926D01*
X199717878Y-110231926D01*
X199600135Y-110231926D01*
X199600787Y-110198417D01*
X199869129Y-110198417D01*
X200187467Y-110198417D01*
X200505805Y-110198417D01*
X200505805Y-109988984D01*
X200505805Y-109779551D01*
X200187467Y-109779551D01*
X199869129Y-109779551D01*
X199869129Y-109988984D01*
X199869129Y-110198417D01*
X199600787Y-110198417D01*
X199604784Y-109993173D01*
X199604866Y-109988984D01*
X199609433Y-109754419D01*
X199722526Y-109749465D01*
X199835620Y-109744511D01*
X199835620Y-109636372D01*
X199835620Y-109528232D01*
X200195844Y-109528232D01*
X200556069Y-109528232D01*
X200556069Y-109637137D01*
G37*
D13*
X210812117Y-102910534D02*
X211612117Y-102910534D01*
X211212117Y-102510534D02*
X211212117Y-103310534D01*
X215221815Y-101145534D02*
X215221815Y-109305534D01*
X215261815Y-101145534D02*
X215261815Y-109305534D01*
X215301815Y-101145534D02*
X215301815Y-109305534D01*
X215341815Y-101146534D02*
X215341815Y-109304534D01*
X215381815Y-101148534D02*
X215381815Y-109302534D01*
X215421815Y-101149534D02*
X215421815Y-109301534D01*
X215461815Y-101151534D02*
X215461815Y-104185534D01*
X215461815Y-106265534D02*
X215461815Y-109299534D01*
X215501815Y-101154534D02*
X215501815Y-104185534D01*
X215501815Y-106265534D02*
X215501815Y-109296534D01*
X215541815Y-101157534D02*
X215541815Y-104185534D01*
X215541815Y-106265534D02*
X215541815Y-109293534D01*
X215581815Y-101160534D02*
X215581815Y-104185534D01*
X215581815Y-106265534D02*
X215581815Y-109290534D01*
X215621815Y-101164534D02*
X215621815Y-104185534D01*
X215621815Y-106265534D02*
X215621815Y-109286534D01*
X215661815Y-101168534D02*
X215661815Y-104185534D01*
X215661815Y-106265534D02*
X215661815Y-109282534D01*
X215701815Y-101173534D02*
X215701815Y-104185534D01*
X215701815Y-106265534D02*
X215701815Y-109277534D01*
X215741815Y-101177534D02*
X215741815Y-104185534D01*
X215741815Y-106265534D02*
X215741815Y-109273534D01*
X215781815Y-101183534D02*
X215781815Y-104185534D01*
X215781815Y-106265534D02*
X215781815Y-109267534D01*
X215821815Y-101188534D02*
X215821815Y-104185534D01*
X215821815Y-106265534D02*
X215821815Y-109262534D01*
X215861815Y-101195534D02*
X215861815Y-104185534D01*
X215861815Y-106265534D02*
X215861815Y-109255534D01*
X215901815Y-101201534D02*
X215901815Y-104185534D01*
X215901815Y-106265534D02*
X215901815Y-109249534D01*
X215942815Y-101208534D02*
X215942815Y-104185534D01*
X215942815Y-106265534D02*
X215942815Y-109242534D01*
X215982815Y-101215534D02*
X215982815Y-104185534D01*
X215982815Y-106265534D02*
X215982815Y-109235534D01*
X216022815Y-101223534D02*
X216022815Y-104185534D01*
X216022815Y-106265534D02*
X216022815Y-109227534D01*
X216062815Y-101231534D02*
X216062815Y-104185534D01*
X216062815Y-106265534D02*
X216062815Y-109219534D01*
X216102815Y-101240534D02*
X216102815Y-104185534D01*
X216102815Y-106265534D02*
X216102815Y-109210534D01*
X216142815Y-101249534D02*
X216142815Y-104185534D01*
X216142815Y-106265534D02*
X216142815Y-109201534D01*
X216182815Y-101258534D02*
X216182815Y-104185534D01*
X216182815Y-106265534D02*
X216182815Y-109192534D01*
X216222815Y-101268534D02*
X216222815Y-104185534D01*
X216222815Y-106265534D02*
X216222815Y-109182534D01*
X216262815Y-101278534D02*
X216262815Y-104185534D01*
X216262815Y-106265534D02*
X216262815Y-109172534D01*
X216302815Y-101289534D02*
X216302815Y-104185534D01*
X216302815Y-106265534D02*
X216302815Y-109161534D01*
X216342815Y-101300534D02*
X216342815Y-104185534D01*
X216342815Y-106265534D02*
X216342815Y-109150534D01*
X216382815Y-101311534D02*
X216382815Y-104185534D01*
X216382815Y-106265534D02*
X216382815Y-109139534D01*
X216422815Y-101323534D02*
X216422815Y-104185534D01*
X216422815Y-106265534D02*
X216422815Y-109127534D01*
X216462815Y-101336534D02*
X216462815Y-104185534D01*
X216462815Y-106265534D02*
X216462815Y-109114534D01*
X216502815Y-101348534D02*
X216502815Y-104185534D01*
X216502815Y-106265534D02*
X216502815Y-109102534D01*
X216542815Y-101362534D02*
X216542815Y-104185534D01*
X216542815Y-106265534D02*
X216542815Y-109088534D01*
X216582815Y-101375534D02*
X216582815Y-104185534D01*
X216582815Y-106265534D02*
X216582815Y-109075534D01*
X216622815Y-101390534D02*
X216622815Y-104185534D01*
X216622815Y-106265534D02*
X216622815Y-109060534D01*
X216662815Y-101404534D02*
X216662815Y-104185534D01*
X216662815Y-106265534D02*
X216662815Y-109046534D01*
X216702815Y-101420534D02*
X216702815Y-104185534D01*
X216702815Y-106265534D02*
X216702815Y-109030534D01*
X216742815Y-101435534D02*
X216742815Y-104185534D01*
X216742815Y-106265534D02*
X216742815Y-109015534D01*
X216782815Y-101451534D02*
X216782815Y-104185534D01*
X216782815Y-106265534D02*
X216782815Y-108999534D01*
X216822815Y-101468534D02*
X216822815Y-104185534D01*
X216822815Y-106265534D02*
X216822815Y-108982534D01*
X216862815Y-101485534D02*
X216862815Y-104185534D01*
X216862815Y-106265534D02*
X216862815Y-108965534D01*
X216902815Y-101503534D02*
X216902815Y-104185534D01*
X216902815Y-106265534D02*
X216902815Y-108947534D01*
X216942815Y-101521534D02*
X216942815Y-104185534D01*
X216942815Y-106265534D02*
X216942815Y-108929534D01*
X216982815Y-101539534D02*
X216982815Y-104185534D01*
X216982815Y-106265534D02*
X216982815Y-108911534D01*
X217022815Y-101559534D02*
X217022815Y-104185534D01*
X217022815Y-106265534D02*
X217022815Y-108891534D01*
X217062815Y-101578534D02*
X217062815Y-104185534D01*
X217062815Y-106265534D02*
X217062815Y-108872534D01*
X217102815Y-101598534D02*
X217102815Y-104185534D01*
X217102815Y-106265534D02*
X217102815Y-108852534D01*
X217142815Y-101619534D02*
X217142815Y-104185534D01*
X217142815Y-106265534D02*
X217142815Y-108831534D01*
X217182815Y-101641534D02*
X217182815Y-104185534D01*
X217182815Y-106265534D02*
X217182815Y-108809534D01*
X217222815Y-101663534D02*
X217222815Y-104185534D01*
X217222815Y-106265534D02*
X217222815Y-108787534D01*
X217262815Y-101685534D02*
X217262815Y-104185534D01*
X217262815Y-106265534D02*
X217262815Y-108765534D01*
X217302815Y-101708534D02*
X217302815Y-104185534D01*
X217302815Y-106265534D02*
X217302815Y-108742534D01*
X217342815Y-101732534D02*
X217342815Y-104185534D01*
X217342815Y-106265534D02*
X217342815Y-108718534D01*
X217382815Y-101756534D02*
X217382815Y-104185534D01*
X217382815Y-106265534D02*
X217382815Y-108694534D01*
X217422815Y-101781534D02*
X217422815Y-104185534D01*
X217422815Y-106265534D02*
X217422815Y-108669534D01*
X217462815Y-101807534D02*
X217462815Y-104185534D01*
X217462815Y-106265534D02*
X217462815Y-108643534D01*
X217502815Y-101833534D02*
X217502815Y-104185534D01*
X217502815Y-106265534D02*
X217502815Y-108617534D01*
X217542815Y-101860534D02*
X217542815Y-108590534D01*
X217582815Y-101887534D02*
X217582815Y-108563534D01*
X217622815Y-101916534D02*
X217622815Y-108534534D01*
X217662815Y-101945534D02*
X217662815Y-108505534D01*
X217702815Y-101975534D02*
X217702815Y-108475534D01*
X217742815Y-102005534D02*
X217742815Y-108445534D01*
X217782815Y-102036534D02*
X217782815Y-108414534D01*
X217822815Y-102069534D02*
X217822815Y-108381534D01*
X217862815Y-102101534D02*
X217862815Y-108349534D01*
X217902815Y-102135534D02*
X217902815Y-108315534D01*
X217942815Y-102170534D02*
X217942815Y-108280534D01*
X217982815Y-102206534D02*
X217982815Y-108244534D01*
X218022815Y-102242534D02*
X218022815Y-108208534D01*
X218062815Y-102280534D02*
X218062815Y-108170534D01*
X218102815Y-102318534D02*
X218102815Y-108132534D01*
X218142815Y-102358534D02*
X218142815Y-108092534D01*
X218182815Y-102399534D02*
X218182815Y-108051534D01*
X218222815Y-102441534D02*
X218222815Y-108009534D01*
X218262815Y-102484534D02*
X218262815Y-107966534D01*
X218302815Y-102528534D02*
X218302815Y-107922534D01*
X218342815Y-102574534D02*
X218342815Y-107876534D01*
X218382815Y-102621534D02*
X218382815Y-107829534D01*
X218422815Y-102669534D02*
X218422815Y-107781534D01*
X218462815Y-102720534D02*
X218462815Y-107730534D01*
X218502815Y-102771534D02*
X218502815Y-107679534D01*
X218542815Y-102825534D02*
X218542815Y-107625534D01*
X218582815Y-102880534D02*
X218582815Y-107570534D01*
X218622815Y-102938534D02*
X218622815Y-107512534D01*
X218662815Y-102997534D02*
X218662815Y-107453534D01*
X218702815Y-103059534D02*
X218702815Y-107391534D01*
X218742815Y-103123534D02*
X218742815Y-107327534D01*
X218782815Y-103191534D02*
X218782815Y-107259534D01*
X218822815Y-103261534D02*
X218822815Y-107189534D01*
X218862815Y-103335534D02*
X218862815Y-107115534D01*
X218902815Y-103412534D02*
X218902815Y-107038534D01*
X218942815Y-103494534D02*
X218942815Y-106956534D01*
X218982815Y-103580534D02*
X218982815Y-106870534D01*
X219022815Y-103673534D02*
X219022815Y-106777534D01*
X219062815Y-103772534D02*
X219062815Y-106678534D01*
X219102815Y-103879534D02*
X219102815Y-106571534D01*
X219142815Y-103996534D02*
X219142815Y-106454534D01*
X219182815Y-104127534D02*
X219182815Y-106323534D01*
X219222815Y-104277534D02*
X219222815Y-106173534D01*
X219262815Y-104457534D02*
X219262815Y-105993534D01*
X219302815Y-104692534D02*
X219302815Y-105758534D01*
X219341815Y-105225534D02*
G75*
G02*
X211101815Y-105225534I-4120000J0D01*
G01*
X211101815Y-105225534D02*
G75*
G02*
X219341815Y-105225534I4120000J0D01*
G01*
X146794466Y-95560534D02*
X146794466Y-102100534D01*
X146794466Y-102100534D02*
X149534466Y-102100534D01*
X148164466Y-94790534D02*
X148164466Y-95560534D01*
X148164466Y-102870534D02*
X148164466Y-102100534D01*
X149534466Y-95560534D02*
X146794466Y-95560534D01*
X149534466Y-102100534D02*
X149534466Y-95560534D01*
D14*
X167384466Y-98555534D02*
X202944466Y-98555534D01*
X167384466Y-108715534D02*
X167384466Y-98555534D01*
X202944466Y-98555534D02*
X202944466Y-108715534D01*
X202944466Y-108715534D02*
X167384466Y-108715534D01*
D10*
X201764466Y-97635534D02*
G75*
G02*
X201564466Y-97635534I-100000J0D01*
G01*
X201564466Y-97635534D02*
G75*
G02*
X201764466Y-97635534I100000J0D01*
G01*
D13*
X203854466Y-101655534D02*
X203854466Y-108195534D01*
X203854466Y-108195534D02*
X206594466Y-108195534D01*
X205224466Y-100885534D02*
X205224466Y-101655534D01*
X205224466Y-108965534D02*
X205224466Y-108195534D01*
X206594466Y-101655534D02*
X203854466Y-101655534D01*
X206594466Y-108195534D02*
X206594466Y-101655534D01*
X172419466Y-88880534D02*
X172419466Y-91540534D01*
X190259466Y-88880534D02*
X172419466Y-88880534D01*
X190259466Y-88880534D02*
X190259466Y-91540534D01*
X190259466Y-91540534D02*
X172419466Y-91540534D01*
X192859466Y-90210534D02*
X192859466Y-91540534D01*
X192859466Y-91540534D02*
X191529466Y-91540534D01*
X148799466Y-106935534D02*
X148799466Y-107400534D01*
X148799466Y-109560534D02*
X148799466Y-110025534D01*
X148799466Y-106935704D02*
G75*
G02*
X154147281Y-107399707I2560000J-1544830D01*
G01*
X149104782Y-107400534D02*
G75*
G02*
X153613945Y-107400105I2254684J-1080000D01*
G01*
X153613945Y-109560963D02*
G75*
G02*
X149104782Y-109560534I-2254479J1080429D01*
G01*
X154147281Y-109561361D02*
G75*
G02*
X148799466Y-110025364I-2787815J1080827D01*
G01*
X163944466Y-95540534D02*
X163944466Y-102080534D01*
X163944466Y-102080534D02*
X166684466Y-102080534D01*
X165314466Y-94770534D02*
X165314466Y-95540534D01*
X165314466Y-102850534D02*
X165314466Y-102080534D01*
X166684466Y-95540534D02*
X163944466Y-95540534D01*
X166684466Y-102080534D02*
X166684466Y-95540534D01*
X146169466Y-92210534D02*
X146169466Y-90826534D01*
X146169466Y-92210534D02*
X147552466Y-92210534D01*
X146409466Y-82070534D02*
X156329466Y-82070534D01*
X146409466Y-91970534D02*
X146409466Y-82070534D01*
X146409466Y-91970534D02*
X156329466Y-91970534D01*
X148194466Y-84990534D02*
X148194466Y-89050534D01*
X148194466Y-87697201D02*
X149464466Y-87697201D01*
X148194466Y-89050534D02*
X149464466Y-89050534D01*
X148314466Y-89050534D02*
X148314466Y-87697201D01*
X148434466Y-89050534D02*
X148434466Y-87697201D01*
X148554466Y-89050534D02*
X148554466Y-87697201D01*
X148674466Y-89050534D02*
X148674466Y-87697201D01*
X148794466Y-89050534D02*
X148794466Y-87697201D01*
X148914466Y-89050534D02*
X148914466Y-87697201D01*
X149034466Y-89050534D02*
X149034466Y-87697201D01*
X149154466Y-89050534D02*
X149154466Y-87697201D01*
X149274466Y-89050534D02*
X149274466Y-87697201D01*
X149394466Y-89050534D02*
X149394466Y-87697201D01*
X149464466Y-84990534D02*
X148194466Y-84990534D01*
X149464466Y-89050534D02*
X149464466Y-84990534D01*
X150734466Y-84990534D02*
X150734466Y-89050534D01*
X150734466Y-87697201D02*
X152004466Y-87697201D01*
X150734466Y-89050534D02*
X152004466Y-89050534D01*
X150854466Y-89050534D02*
X150854466Y-87697201D01*
X150974466Y-89050534D02*
X150974466Y-87697201D01*
X151094466Y-89050534D02*
X151094466Y-87697201D01*
X151214466Y-89050534D02*
X151214466Y-87697201D01*
X151334466Y-89050534D02*
X151334466Y-87697201D01*
X151454466Y-89050534D02*
X151454466Y-87697201D01*
X151574466Y-89050534D02*
X151574466Y-87697201D01*
X151694466Y-89050534D02*
X151694466Y-87697201D01*
X151814466Y-89050534D02*
X151814466Y-87697201D01*
X151934466Y-89050534D02*
X151934466Y-87697201D01*
X152004466Y-84990534D02*
X150734466Y-84990534D01*
X152004466Y-89050534D02*
X152004466Y-84990534D01*
X153274466Y-84990534D02*
X153274466Y-89050534D01*
X153274466Y-87697201D02*
X154544466Y-87697201D01*
X153274466Y-89050534D02*
X154544466Y-89050534D01*
X153394466Y-89050534D02*
X153394466Y-87697201D01*
X153514466Y-89050534D02*
X153514466Y-87697201D01*
X153634466Y-89050534D02*
X153634466Y-87697201D01*
X153754466Y-89050534D02*
X153754466Y-87697201D01*
X153874466Y-89050534D02*
X153874466Y-87697201D01*
X153994466Y-89050534D02*
X153994466Y-87697201D01*
X154114466Y-89050534D02*
X154114466Y-87697201D01*
X154234466Y-89050534D02*
X154234466Y-87697201D01*
X154354466Y-89050534D02*
X154354466Y-87697201D01*
X154474466Y-89050534D02*
X154474466Y-87697201D01*
X154544466Y-84990534D02*
X153274466Y-84990534D01*
X154544466Y-89050534D02*
X154544466Y-84990534D01*
X156329466Y-91970534D02*
X156329466Y-82070534D01*
X195874466Y-89585534D02*
X196644466Y-89585534D01*
X196644466Y-88215534D02*
X196644466Y-90955534D01*
X196644466Y-90955534D02*
X203184466Y-90955534D01*
X203184466Y-88215534D02*
X196644466Y-88215534D01*
X203184466Y-90955534D02*
X203184466Y-88215534D01*
X203954466Y-89585534D02*
X203184466Y-89585534D01*
X179254466Y-92460534D02*
X185654466Y-92460534D01*
X179254466Y-97510534D02*
X185654466Y-97510534D01*
X179254466Y-97510534D02*
G75*
G02*
X179254466Y-92460534I0J2525000D01*
G01*
X185654466Y-92460534D02*
G75*
G02*
X185654466Y-97510534I0J-2525000D01*
G01*
X198019466Y-97175534D02*
X201109466Y-97175534D01*
X198019636Y-97175534D02*
G75*
G02*
X199564928Y-91625534I1544830J2560000D01*
G01*
X199564004Y-91625534D02*
G75*
G02*
X201109296Y-97175534I462J-2990000D01*
G01*
X202064466Y-94615534D02*
G75*
G02*
X197064466Y-94615534I-2500000J0D01*
G01*
X197064466Y-94615534D02*
G75*
G02*
X202064466Y-94615534I2500000J0D01*
G01*
X156969466Y-92260534D02*
X156969466Y-90876534D01*
X156969466Y-92260534D02*
X158352466Y-92260534D01*
X157209466Y-82120534D02*
X167129466Y-82120534D01*
X157209466Y-92020534D02*
X157209466Y-82120534D01*
X157209466Y-92020534D02*
X167129466Y-92020534D01*
X158994466Y-85040534D02*
X158994466Y-89100534D01*
X158994466Y-87747201D02*
X160264466Y-87747201D01*
X158994466Y-89100534D02*
X160264466Y-89100534D01*
X159114466Y-89100534D02*
X159114466Y-87747201D01*
X159234466Y-89100534D02*
X159234466Y-87747201D01*
X159354466Y-89100534D02*
X159354466Y-87747201D01*
X159474466Y-89100534D02*
X159474466Y-87747201D01*
X159594466Y-89100534D02*
X159594466Y-87747201D01*
X159714466Y-89100534D02*
X159714466Y-87747201D01*
X159834466Y-89100534D02*
X159834466Y-87747201D01*
X159954466Y-89100534D02*
X159954466Y-87747201D01*
X160074466Y-89100534D02*
X160074466Y-87747201D01*
X160194466Y-89100534D02*
X160194466Y-87747201D01*
X160264466Y-85040534D02*
X158994466Y-85040534D01*
X160264466Y-89100534D02*
X160264466Y-85040534D01*
X161534466Y-85040534D02*
X161534466Y-89100534D01*
X161534466Y-87747201D02*
X162804466Y-87747201D01*
X161534466Y-89100534D02*
X162804466Y-89100534D01*
X161654466Y-89100534D02*
X161654466Y-87747201D01*
X161774466Y-89100534D02*
X161774466Y-87747201D01*
X161894466Y-89100534D02*
X161894466Y-87747201D01*
X162014466Y-89100534D02*
X162014466Y-87747201D01*
X162134466Y-89100534D02*
X162134466Y-87747201D01*
X162254466Y-89100534D02*
X162254466Y-87747201D01*
X162374466Y-89100534D02*
X162374466Y-87747201D01*
X162494466Y-89100534D02*
X162494466Y-87747201D01*
X162614466Y-89100534D02*
X162614466Y-87747201D01*
X162734466Y-89100534D02*
X162734466Y-87747201D01*
X162804466Y-85040534D02*
X161534466Y-85040534D01*
X162804466Y-89100534D02*
X162804466Y-85040534D01*
X164074466Y-85040534D02*
X164074466Y-89100534D01*
X164074466Y-87747201D02*
X165344466Y-87747201D01*
X164074466Y-89100534D02*
X165344466Y-89100534D01*
X164194466Y-89100534D02*
X164194466Y-87747201D01*
X164314466Y-89100534D02*
X164314466Y-87747201D01*
X164434466Y-89100534D02*
X164434466Y-87747201D01*
X164554466Y-89100534D02*
X164554466Y-87747201D01*
X164674466Y-89100534D02*
X164674466Y-87747201D01*
X164794466Y-89100534D02*
X164794466Y-87747201D01*
X164914466Y-89100534D02*
X164914466Y-87747201D01*
X165034466Y-89100534D02*
X165034466Y-87747201D01*
X165154466Y-89100534D02*
X165154466Y-87747201D01*
X165274466Y-89100534D02*
X165274466Y-87747201D01*
X165344466Y-85040534D02*
X164074466Y-85040534D01*
X165344466Y-89100534D02*
X165344466Y-85040534D01*
X167129466Y-92020534D02*
X167129466Y-82120534D01*
D12*
G36*
X147278920Y-112402116D02*
G01*
X147311857Y-112409538D01*
X147313700Y-112410286D01*
X147326606Y-112419061D01*
X147352759Y-112439685D01*
X147390923Y-112471072D01*
X147439862Y-112512138D01*
X147498337Y-112561797D01*
X147565113Y-112618965D01*
X147638953Y-112682555D01*
X147718620Y-112751483D01*
X147802878Y-112824664D01*
X147890489Y-112901012D01*
X147980217Y-112979443D01*
X148070825Y-113058871D01*
X148161077Y-113138211D01*
X148249735Y-113216378D01*
X148335564Y-113292286D01*
X148417326Y-113364851D01*
X148493784Y-113432987D01*
X148563702Y-113495609D01*
X148625843Y-113551632D01*
X148678970Y-113599971D01*
X148721847Y-113639541D01*
X148753236Y-113669256D01*
X148771902Y-113688032D01*
X148776688Y-113693981D01*
X148780105Y-113708934D01*
X148785378Y-113743275D01*
X148792501Y-113796941D01*
X148801466Y-113869873D01*
X148812267Y-113962006D01*
X148824897Y-114073281D01*
X148839348Y-114203635D01*
X148855614Y-114353007D01*
X148873688Y-114521335D01*
X148893563Y-114708556D01*
X148915231Y-114914611D01*
X148923207Y-114990876D01*
X148939464Y-115146765D01*
X148955146Y-115297631D01*
X148970135Y-115442297D01*
X148984311Y-115579584D01*
X148997553Y-115708314D01*
X149009741Y-115827309D01*
X149020756Y-115935390D01*
X149030478Y-116031381D01*
X149038786Y-116114103D01*
X149045561Y-116182377D01*
X149050682Y-116235025D01*
X149054030Y-116270870D01*
X149055484Y-116288733D01*
X149055538Y-116290177D01*
X149049302Y-116321039D01*
X149032829Y-116356930D01*
X149027323Y-116365914D01*
X149015112Y-116380944D01*
X148990530Y-116407986D01*
X148954953Y-116445670D01*
X148909758Y-116492624D01*
X148856325Y-116547477D01*
X148796030Y-116608856D01*
X148730252Y-116675391D01*
X148660367Y-116745710D01*
X148587753Y-116818441D01*
X148513789Y-116892213D01*
X148439852Y-116965655D01*
X148367319Y-117037394D01*
X148297569Y-117106060D01*
X148231978Y-117170280D01*
X148171926Y-117228684D01*
X148118788Y-117279900D01*
X148073943Y-117322557D01*
X148038770Y-117355282D01*
X148014644Y-117376705D01*
X148003389Y-117385253D01*
X147997964Y-117387324D01*
X147989742Y-117389206D01*
X147977825Y-117390907D01*
X147961314Y-117392438D01*
X147939309Y-117393806D01*
X147910912Y-117395020D01*
X147875224Y-117396090D01*
X147831345Y-117397025D01*
X147778378Y-117397832D01*
X147715422Y-117398522D01*
X147641580Y-117399102D01*
X147555952Y-117399582D01*
X147457639Y-117399971D01*
X147345742Y-117400278D01*
X147219363Y-117400511D01*
X147077603Y-117400679D01*
X146919562Y-117400791D01*
X146744342Y-117400857D01*
X146551044Y-117400884D01*
X146420773Y-117400886D01*
X146216977Y-117400876D01*
X146031807Y-117400847D01*
X145864352Y-117400790D01*
X145713699Y-117400693D01*
X145578937Y-117400547D01*
X145459154Y-117400340D01*
X145353437Y-117400062D01*
X145260875Y-117399702D01*
X145180557Y-117399250D01*
X145111569Y-117398694D01*
X145053000Y-117398025D01*
X145003939Y-117397232D01*
X144963472Y-117396303D01*
X144930689Y-117395229D01*
X144904677Y-117393999D01*
X144884524Y-117392602D01*
X144869318Y-117391027D01*
X144858148Y-117389264D01*
X144850102Y-117387303D01*
X144844266Y-117385132D01*
X144839731Y-117382741D01*
X144839248Y-117382450D01*
X144801201Y-117351705D01*
X144773567Y-117314371D01*
X144762616Y-117285675D01*
X144759668Y-117267576D01*
X144754661Y-117231846D01*
X144747764Y-117179873D01*
X144739142Y-117113045D01*
X144737244Y-117098077D01*
X145215959Y-117098077D01*
X146481210Y-117098077D01*
X146665221Y-117098061D01*
X146830666Y-117098005D01*
X146978518Y-117097899D01*
X147109748Y-117097729D01*
X147225331Y-117097484D01*
X147326237Y-117097152D01*
X147413440Y-117096721D01*
X147487913Y-117096180D01*
X147550627Y-117095516D01*
X147602555Y-117094718D01*
X147644670Y-117093774D01*
X147677944Y-117092672D01*
X147703350Y-117091400D01*
X147721861Y-117089946D01*
X147734448Y-117088299D01*
X147742085Y-117086446D01*
X147745743Y-117084376D01*
X147746461Y-117082661D01*
X147744636Y-117071932D01*
X147739335Y-117043371D01*
X147730819Y-116998324D01*
X147719349Y-116938136D01*
X147705185Y-116864154D01*
X147688589Y-116777722D01*
X147669822Y-116680188D01*
X147649145Y-116572896D01*
X147626817Y-116457192D01*
X147603102Y-116334423D01*
X147578258Y-116205933D01*
X147552548Y-116073070D01*
X147526232Y-115937177D01*
X147499571Y-115799602D01*
X147472827Y-115661690D01*
X147446259Y-115524786D01*
X147420129Y-115390237D01*
X147394698Y-115259389D01*
X147370227Y-115133586D01*
X147346976Y-115014175D01*
X147325207Y-114902502D01*
X147305181Y-114799912D01*
X147287158Y-114707751D01*
X147271399Y-114627365D01*
X147258166Y-114560100D01*
X147247719Y-114507301D01*
X147240319Y-114470314D01*
X147236228Y-114450486D01*
X147235541Y-114447539D01*
X147229472Y-114454243D01*
X147212270Y-114475665D01*
X147184593Y-114510942D01*
X147147102Y-114559216D01*
X147100456Y-114619624D01*
X147045315Y-114691306D01*
X146982338Y-114773401D01*
X146912185Y-114865049D01*
X146835516Y-114965389D01*
X146752989Y-115073559D01*
X146665266Y-115188700D01*
X146573005Y-115309950D01*
X146476865Y-115436449D01*
X146382139Y-115561231D01*
X146279701Y-115696245D01*
X146178551Y-115829561D01*
X146079519Y-115960083D01*
X145983438Y-116086715D01*
X145891138Y-116208363D01*
X145803450Y-116323930D01*
X145721205Y-116432322D01*
X145645236Y-116532443D01*
X145576372Y-116623197D01*
X145515446Y-116703489D01*
X145463288Y-116772223D01*
X145420730Y-116828304D01*
X145388603Y-116870637D01*
X145373541Y-116890480D01*
X145215959Y-117098077D01*
X144737244Y-117098077D01*
X144728962Y-117032748D01*
X144717390Y-116940370D01*
X144704593Y-116837298D01*
X144690737Y-116724920D01*
X144675989Y-116604622D01*
X144660515Y-116477792D01*
X144644482Y-116345817D01*
X144628056Y-116210085D01*
X144611404Y-116071982D01*
X144594692Y-115932895D01*
X144578087Y-115794213D01*
X144561755Y-115657322D01*
X144545863Y-115523609D01*
X144530576Y-115394463D01*
X144516063Y-115271269D01*
X144502488Y-115155415D01*
X144490019Y-115048289D01*
X144478822Y-114951278D01*
X144469064Y-114865769D01*
X144460911Y-114793149D01*
X144454529Y-114734805D01*
X144452498Y-114715304D01*
X144753045Y-114715304D01*
X144882541Y-115777248D01*
X144899838Y-115919212D01*
X144916448Y-116055773D01*
X144932221Y-116185675D01*
X144947005Y-116307664D01*
X144960649Y-116420484D01*
X144973002Y-116522881D01*
X144983913Y-116613599D01*
X144993230Y-116691382D01*
X145000802Y-116754977D01*
X145006479Y-116803128D01*
X145010109Y-116834580D01*
X145011541Y-116848078D01*
X145011557Y-116848473D01*
X145016443Y-116850898D01*
X145022950Y-116845880D01*
X145030038Y-116836945D01*
X145048324Y-116813246D01*
X145077195Y-116775589D01*
X145116040Y-116724775D01*
X145164248Y-116661608D01*
X145221207Y-116586891D01*
X145286305Y-116501429D01*
X145358931Y-116406023D01*
X145438475Y-116301478D01*
X145524323Y-116188597D01*
X145615865Y-116068183D01*
X145712488Y-115941039D01*
X145813583Y-115807969D01*
X145918537Y-115669777D01*
X146026738Y-115527265D01*
X146052498Y-115493330D01*
X146161162Y-115350090D01*
X146266530Y-115211029D01*
X146368001Y-115076943D01*
X146464978Y-114948631D01*
X146556861Y-114826891D01*
X146643051Y-114712520D01*
X146722949Y-114606317D01*
X146795956Y-114509080D01*
X146861474Y-114421607D01*
X146918903Y-114344695D01*
X146967644Y-114279143D01*
X147007099Y-114225748D01*
X147032970Y-114190367D01*
X147496562Y-114190367D01*
X147497604Y-114196421D01*
X147500999Y-114214481D01*
X147506826Y-114244956D01*
X147515166Y-114288257D01*
X147526099Y-114344793D01*
X147539703Y-114414975D01*
X147556060Y-114499212D01*
X147575248Y-114597915D01*
X147597347Y-114711493D01*
X147622438Y-114840355D01*
X147650600Y-114984913D01*
X147681913Y-115145576D01*
X147716456Y-115322753D01*
X147754310Y-115516856D01*
X147795555Y-115728293D01*
X147840269Y-115957474D01*
X147888533Y-116204810D01*
X147940428Y-116470711D01*
X147967246Y-116608114D01*
X148032738Y-116943651D01*
X148389489Y-116586900D01*
X148746239Y-116230150D01*
X148627695Y-115094868D01*
X148612326Y-114947980D01*
X148597468Y-114806553D01*
X148583252Y-114671797D01*
X148569806Y-114544920D01*
X148557262Y-114427133D01*
X148545750Y-114319644D01*
X148535399Y-114223663D01*
X148526341Y-114140400D01*
X148518705Y-114071063D01*
X148512622Y-114016863D01*
X148508221Y-113979009D01*
X148505633Y-113958709D01*
X148505028Y-113955464D01*
X148495317Y-113957072D01*
X148468737Y-113962688D01*
X148427430Y-113971813D01*
X148373536Y-113983947D01*
X148309199Y-113998592D01*
X148236559Y-114015248D01*
X148157760Y-114033418D01*
X148074943Y-114052601D01*
X147990250Y-114072299D01*
X147905823Y-114092013D01*
X147823804Y-114111245D01*
X147746334Y-114129494D01*
X147675557Y-114146263D01*
X147613613Y-114161052D01*
X147562646Y-114173362D01*
X147524796Y-114182695D01*
X147502205Y-114188551D01*
X147496562Y-114190367D01*
X147032970Y-114190367D01*
X147036668Y-114185309D01*
X147055752Y-114158624D01*
X147063753Y-114146490D01*
X147063951Y-114145824D01*
X147054288Y-114141609D01*
X147028037Y-114131189D01*
X146986826Y-114115177D01*
X146932280Y-114094188D01*
X146866028Y-114068835D01*
X146789695Y-114039732D01*
X146704910Y-114007494D01*
X146613299Y-113972732D01*
X146516489Y-113936063D01*
X146416107Y-113898099D01*
X146313780Y-113859454D01*
X146211134Y-113820743D01*
X146109798Y-113782578D01*
X146011397Y-113745575D01*
X145917560Y-113710345D01*
X145829912Y-113677505D01*
X145750080Y-113647667D01*
X145679693Y-113621444D01*
X145620376Y-113599452D01*
X145573757Y-113582304D01*
X145541462Y-113570613D01*
X145525119Y-113564994D01*
X145523403Y-113564593D01*
X145517924Y-113572816D01*
X145502441Y-113595975D01*
X145477824Y-113632775D01*
X145444941Y-113681915D01*
X145404660Y-113742100D01*
X145357850Y-113812032D01*
X145305379Y-113890412D01*
X145248116Y-113975943D01*
X145186930Y-114067328D01*
X145137666Y-114140902D01*
X144753045Y-114715304D01*
X144452498Y-114715304D01*
X144450085Y-114692125D01*
X144447746Y-114666496D01*
X144447445Y-114659486D01*
X144449605Y-114650034D01*
X144454927Y-114636643D01*
X144464064Y-114618291D01*
X144477670Y-114593953D01*
X144496398Y-114562606D01*
X144520901Y-114523225D01*
X144551834Y-114474788D01*
X144589850Y-114416269D01*
X144635602Y-114346646D01*
X144689743Y-114264894D01*
X144752928Y-114169990D01*
X144825809Y-114060909D01*
X144904319Y-113943672D01*
X144973887Y-113840070D01*
X145040664Y-113741008D01*
X145103810Y-113647711D01*
X145162483Y-113561403D01*
X145215843Y-113483308D01*
X145263050Y-113414651D01*
X145298512Y-113363508D01*
X145860940Y-113363508D01*
X146478874Y-113595982D01*
X146586981Y-113636669D01*
X146692314Y-113676342D01*
X146793018Y-113714301D01*
X146887239Y-113749845D01*
X146973120Y-113782273D01*
X147048808Y-113810885D01*
X147112448Y-113834981D01*
X147162184Y-113853860D01*
X147196162Y-113866821D01*
X147204269Y-113869938D01*
X147247819Y-113886373D01*
X147285553Y-113899918D01*
X147313264Y-113909107D01*
X147326384Y-113912462D01*
X147338516Y-113910471D01*
X147367786Y-113904361D01*
X147412325Y-113894558D01*
X147470270Y-113881486D01*
X147539754Y-113865572D01*
X147618910Y-113847241D01*
X147705873Y-113826916D01*
X147798777Y-113805024D01*
X147819730Y-113800063D01*
X147913411Y-113777771D01*
X148001292Y-113756684D01*
X148081547Y-113737251D01*
X148152345Y-113719924D01*
X148211858Y-113705154D01*
X148258257Y-113693393D01*
X148289713Y-113685091D01*
X148304398Y-113680701D01*
X148305211Y-113680291D01*
X148298910Y-113673304D01*
X148279308Y-113654693D01*
X148247808Y-113625701D01*
X148205815Y-113587571D01*
X148154731Y-113541546D01*
X148095960Y-113488868D01*
X148030907Y-113430779D01*
X147960974Y-113368522D01*
X147887565Y-113303339D01*
X147812084Y-113236473D01*
X147735934Y-113169167D01*
X147660519Y-113102662D01*
X147587242Y-113038202D01*
X147517508Y-112977029D01*
X147452719Y-112920386D01*
X147394279Y-112869514D01*
X147343593Y-112825657D01*
X147302062Y-112790056D01*
X147271092Y-112763956D01*
X147257679Y-112752984D01*
X147229922Y-112730777D01*
X146545431Y-113047142D01*
X145860940Y-113363508D01*
X145298512Y-113363508D01*
X145303262Y-113356657D01*
X145335640Y-113310551D01*
X145359341Y-113277556D01*
X145373525Y-113258897D01*
X145377029Y-113255147D01*
X145392832Y-113246570D01*
X145424653Y-113230786D01*
X145471040Y-113208458D01*
X145530543Y-113180249D01*
X145601712Y-113146821D01*
X145683097Y-113108839D01*
X145773247Y-113066965D01*
X145870712Y-113021863D01*
X145974043Y-112974195D01*
X146081788Y-112924624D01*
X146192498Y-112873814D01*
X146304723Y-112822428D01*
X146417012Y-112771128D01*
X146527914Y-112720578D01*
X146635981Y-112671441D01*
X146739761Y-112624381D01*
X146837804Y-112580059D01*
X146928661Y-112539139D01*
X147010880Y-112502285D01*
X147083012Y-112470159D01*
X147143607Y-112443425D01*
X147191213Y-112422745D01*
X147224382Y-112408783D01*
X147241663Y-112402201D01*
X147243402Y-112401777D01*
X147278920Y-112402116D01*
G37*
D13*
X143334466Y-95815534D02*
X144664466Y-95815534D01*
X143334466Y-97145534D02*
X143334466Y-95815534D01*
X143334466Y-98415534D02*
X143334466Y-111175534D01*
X143334466Y-98415534D02*
X145994466Y-98415534D01*
X143334466Y-111175534D02*
X145994466Y-111175534D01*
X145994466Y-98415534D02*
X145994466Y-111175534D01*
X209994466Y-114990534D02*
X208664466Y-114990534D01*
X209994466Y-113660534D02*
X209994466Y-114990534D01*
X207394466Y-114990534D02*
X199714466Y-114990534D01*
X207394466Y-112330534D02*
X207394466Y-114990534D01*
X207394466Y-112330534D02*
X199714466Y-112330534D01*
X199714466Y-112330534D02*
X199714466Y-114990534D01*
D15*
X210374466Y-91745534D02*
X204174466Y-91745534D01*
X204174466Y-97945534D01*
X210374466Y-97945534D01*
X210374466Y-91745534D01*
D13*
X160784466Y-95540534D02*
X160784466Y-102080534D01*
X160784466Y-102080534D02*
X163524466Y-102080534D01*
X162154466Y-94770534D02*
X162154466Y-95540534D01*
X162154466Y-102850534D02*
X162154466Y-102080534D01*
X163524466Y-95540534D02*
X160784466Y-95540534D01*
X163524466Y-102080534D02*
X163524466Y-95540534D01*
X211704466Y-114405534D02*
X211704466Y-114720534D01*
X211704466Y-114405534D02*
X216944466Y-114405534D01*
X211704466Y-116830534D02*
X211704466Y-117145534D01*
X211704466Y-117145534D02*
X216944466Y-117145534D01*
X216944466Y-114405534D02*
X216944466Y-114720534D01*
X216944466Y-116830534D02*
X216944466Y-117145534D01*
X153144466Y-95560534D02*
X153144466Y-102100534D01*
X153144466Y-102100534D02*
X155884466Y-102100534D01*
X154514466Y-94790534D02*
X154514466Y-95560534D01*
X154514466Y-102870534D02*
X154514466Y-102100534D01*
X155884466Y-95560534D02*
X153144466Y-95560534D01*
X155884466Y-102100534D02*
X155884466Y-95560534D01*
X159599466Y-106885534D02*
X159599466Y-107350534D01*
X159599466Y-109510534D02*
X159599466Y-109975534D01*
X159599466Y-106885704D02*
G75*
G02*
X164947281Y-107349707I2560000J-1544830D01*
G01*
X159904782Y-107350534D02*
G75*
G02*
X164413945Y-107350105I2254684J-1080000D01*
G01*
X164413945Y-109510963D02*
G75*
G02*
X159904782Y-109510534I-2254479J1080429D01*
G01*
X164947281Y-109511361D02*
G75*
G02*
X159599466Y-109975364I-2787815J1080827D01*
G01*
X169944466Y-93930534D02*
X169944466Y-93615534D01*
X169944466Y-96355534D02*
X169944466Y-96040534D01*
X175184466Y-93615534D02*
X169944466Y-93615534D01*
X175184466Y-93930534D02*
X175184466Y-93615534D01*
X175184466Y-96355534D02*
X169944466Y-96355534D01*
X175184466Y-96355534D02*
X175184466Y-96040534D01*
X170894466Y-112330534D02*
X170894466Y-114990534D01*
X186194466Y-112330534D02*
X170894466Y-112330534D01*
X186194466Y-112330534D02*
X186194466Y-114990534D01*
X186194466Y-114990534D02*
X170894466Y-114990534D01*
X188794466Y-113660534D02*
X188794466Y-114990534D01*
X188794466Y-114990534D02*
X187464466Y-114990534D01*
X189744466Y-93615534D02*
X189744466Y-93930534D01*
X189744466Y-93615534D02*
X194984466Y-93615534D01*
X189744466Y-96040534D02*
X189744466Y-96355534D01*
X189744466Y-96355534D02*
X194984466Y-96355534D01*
X194984466Y-93615534D02*
X194984466Y-93930534D01*
X194984466Y-96040534D02*
X194984466Y-96355534D01*
X154284466Y-112330534D02*
X154284466Y-114990534D01*
X167044466Y-112330534D02*
X154284466Y-112330534D01*
X167044466Y-112330534D02*
X167044466Y-114990534D01*
X167044466Y-114990534D02*
X154284466Y-114990534D01*
X169644466Y-113660534D02*
X169644466Y-114990534D01*
X169644466Y-114990534D02*
X168314466Y-114990534D01*
X207154466Y-102505534D02*
X207154466Y-107945534D01*
X207154466Y-106925534D02*
X210094466Y-106925534D01*
X207154466Y-107045534D02*
X210094466Y-107045534D01*
X207154466Y-107165534D02*
X210094466Y-107165534D01*
X207154466Y-107945534D02*
X210094466Y-107945534D01*
X208624466Y-101485534D02*
X208624466Y-102505534D01*
X208624466Y-108965534D02*
X208624466Y-107945534D01*
X210094466Y-102505534D02*
X207154466Y-102505534D01*
X210094466Y-107945534D02*
X210094466Y-102505534D01*
X157594466Y-95540534D02*
X157594466Y-102080534D01*
X157594466Y-102080534D02*
X160334466Y-102080534D01*
X158964466Y-94770534D02*
X158964466Y-95540534D01*
X158964466Y-102850534D02*
X158964466Y-102080534D01*
X160334466Y-95540534D02*
X157594466Y-95540534D01*
X160334466Y-102080534D02*
X160334466Y-95540534D01*
X149984466Y-95560534D02*
X149984466Y-102100534D01*
X149984466Y-102100534D02*
X152724466Y-102100534D01*
X151354466Y-94790534D02*
X151354466Y-95560534D01*
X151354466Y-102870534D02*
X151354466Y-102100534D01*
X152724466Y-95560534D02*
X149984466Y-95560534D01*
X152724466Y-102100534D02*
X152724466Y-95560534D01*
X211704466Y-110755534D02*
X211704466Y-111070534D01*
X211704466Y-110755534D02*
X216944466Y-110755534D01*
X211704466Y-113180534D02*
X211704466Y-113495534D01*
X211704466Y-113495534D02*
X216944466Y-113495534D01*
X216944466Y-110755534D02*
X216944466Y-111070534D01*
X216944466Y-113180534D02*
X216944466Y-113495534D01*
D14*
X211374466Y-89763034D02*
X218874466Y-89763034D01*
X211374466Y-99763034D02*
X211374466Y-89763034D01*
X218874466Y-89763034D02*
X218874466Y-99763034D01*
X218874466Y-99763034D02*
X211374466Y-99763034D01*
D10*
X215474466Y-100363034D02*
G75*
G02*
X215274466Y-100363034I-100000J0D01*
G01*
X215274466Y-100363034D02*
G75*
G02*
X215474466Y-100363034I100000J0D01*
G01*
%LPC*%
D16*
X213971815Y-105225534D03*
D17*
X216471815Y-105225534D03*
X148164466Y-93750534D03*
D18*
X148164466Y-103910534D03*
D19*
X201674466Y-99825534D03*
D20*
X199134466Y-99825534D03*
X196594466Y-99825534D03*
X194054466Y-99825534D03*
X191514466Y-99825534D03*
X188974466Y-99825534D03*
X186434466Y-99825534D03*
X183894466Y-99825534D03*
X181354466Y-99825534D03*
X178814466Y-99825534D03*
X176274466Y-99825534D03*
X173734466Y-99825534D03*
X171194466Y-99825534D03*
X168654466Y-99825534D03*
X168654466Y-107445534D03*
X171194466Y-107445534D03*
X173734466Y-107445534D03*
X176274466Y-107445534D03*
X178814466Y-107445534D03*
X181354466Y-107445534D03*
X183894466Y-107445534D03*
X186434466Y-107445534D03*
X188974466Y-107445534D03*
X191514466Y-107445534D03*
X194054466Y-107445534D03*
X196594466Y-107445534D03*
X199134466Y-107445534D03*
X201674466Y-107445534D03*
D17*
X205224466Y-99845534D03*
D18*
X205224466Y-110005534D03*
D21*
X191529466Y-90210534D03*
D22*
X188989466Y-90210534D03*
X186449466Y-90210534D03*
X183909466Y-90210534D03*
X181369466Y-90210534D03*
X178829466Y-90210534D03*
X176289466Y-90210534D03*
X173749466Y-90210534D03*
D23*
X149454466Y-108480534D03*
D24*
X150724466Y-108480534D03*
X151994466Y-108480534D03*
X153264466Y-108480534D03*
D17*
X165314466Y-93730534D03*
D18*
X165314466Y-103890534D03*
D16*
X148829466Y-90830534D03*
D18*
X151369466Y-90830534D03*
X153909466Y-90830534D03*
X153909466Y-83210534D03*
X151369466Y-83210534D03*
X148829466Y-83210534D03*
D17*
X194834466Y-89585534D03*
D18*
X204994466Y-89585534D03*
D25*
X180014466Y-94985534D03*
X184894466Y-94985534D03*
D26*
X199564466Y-95885534D03*
D27*
X199564466Y-93345534D03*
D16*
X159629466Y-90880534D03*
D18*
X162169466Y-90880534D03*
X164709466Y-90880534D03*
X164709466Y-83260534D03*
X162169466Y-83260534D03*
X159629466Y-83260534D03*
D21*
X144664466Y-97145534D03*
D22*
X144664466Y-99685534D03*
X144664466Y-102225534D03*
X144664466Y-104765534D03*
X144664466Y-107305534D03*
X144664466Y-109845534D03*
X201044466Y-113660534D03*
X203584466Y-113660534D03*
X206124466Y-113660534D03*
D21*
X208664466Y-113660534D03*
D17*
X207274466Y-92195534D03*
X207274466Y-97495534D03*
X162154466Y-93730534D03*
D18*
X162154466Y-103890534D03*
D17*
X211824466Y-115775534D03*
X216824466Y-115775534D03*
X154514466Y-93750534D03*
D18*
X154514466Y-103910534D03*
D23*
X160254466Y-108430534D03*
D24*
X161524466Y-108430534D03*
X162794466Y-108430534D03*
X164064466Y-108430534D03*
D17*
X175064466Y-94985534D03*
X170064466Y-94985534D03*
D21*
X187464466Y-113660534D03*
D22*
X184924466Y-113660534D03*
X182384466Y-113660534D03*
X179844466Y-113660534D03*
X177304466Y-113660534D03*
X174764466Y-113660534D03*
X172224466Y-113660534D03*
D17*
X189864466Y-94985534D03*
X194864466Y-94985534D03*
D21*
X168314466Y-113660534D03*
D22*
X165774466Y-113660534D03*
X163234466Y-113660534D03*
X160694466Y-113660534D03*
X158154466Y-113660534D03*
X155614466Y-113660534D03*
D28*
X208624466Y-110305534D03*
D29*
X208624466Y-100145534D03*
D17*
X158964466Y-93730534D03*
D18*
X158964466Y-103890534D03*
D17*
X151354466Y-93750534D03*
D18*
X151354466Y-103910534D03*
D17*
X211824466Y-112125534D03*
X216824466Y-112125534D03*
D30*
X215374466Y-97263034D03*
D31*
X215374466Y-92263034D03*
%LPD*%
M02*
